<svg id="svg" version="1.1" xmlns="http://www.w3.org/2000/svg" xmlns:xlink="http://www.w3.org/1999/xlink" width="400" height="400" viewBox="0, 0, 400,400"><g id="svgg"><path id="path0" d="M174.726 9.638 C 144.713 13.057,118.269 28.813,102.056 52.935 C 99.794 56.299,99.543 56.878,98.728 60.602 C 97.162 67.752,97.158 67.334,98.783 67.586 C 102.750 68.201,105.997 69.417,109.074 71.444 L 110.185 72.175 112.593 68.280 C 136.629 29.390,185.367 10.130,230.556 21.666 C 233.204 22.342,235.411 22.856,235.460 22.808 C 235.913 22.372,221.592 15.976,215.926 14.084 C 204.288 10.198,186.581 8.287,174.726 9.638 M196.296 23.554 C 181.262 25.358,173.128 27.470,161.852 32.495 C 142.740 41.012,126.369 55.235,116.444 71.945 L 114.079 75.926 115.280 77.510 C 115.941 78.380,116.743 79.492,117.062 79.979 C 117.642 80.864,117.644 80.862,119.244 77.933 C 150.117 21.402,234.421 11.312,270.833 59.791 C 273.898 63.871,274.053 63.961,272.286 60.631 C 268.899 54.251,263.802 47.275,257.588 40.519 C 250.797 33.135,236.121 27.224,217.222 24.260 C 213.672 23.703,199.137 23.213,196.296 23.554 M199.114 44.866 C 195.541 45.324,192.036 46.178,190.036 47.077 L 188.333 47.842 193.148 49.085 C 226.652 57.735,253.017 76.741,259.410 96.852 C 263.665 110.237,261.427 137.144,254.852 151.643 L 253.745 154.086 256.039 152.342 C 264.182 146.151,270.526 137.125,273.132 128.022 C 278.582 108.987,273.081 81.056,261.044 66.642 C 248.106 51.149,221.915 41.939,199.114 44.866 M92.778 72.971 C 91.963 73.134,90.463 73.599,89.444 74.005 C 87.438 74.803,87.461 74.826,90.741 75.349 C 102.321 77.194,110.421 95.390,107.234 112.399 C 106.506 116.287,106.371 116.114,110.124 116.098 C 113.908 116.082,116.917 114.935,117.262 113.378 C 117.380 112.844,117.555 112.117,117.651 111.762 C 118.133 109.983,118.388 103.076,118.097 99.673 C 116.599 82.142,105.487 70.423,92.778 72.971 M147.678 74.072 C 136.976 75.968,131.444 90.950,138.492 98.955 C 144.988 106.336,157.109 102.334,160.452 91.705 C 163.549 81.857,156.747 72.466,147.678 74.072 M84.576 80.365 C 79.543 81.427,74.245 86.399,71.129 92.986 C 68.012 99.574,74.622 112.559,83.188 116.678 C 90.805 120.340,101.101 117.187,102.210 110.853 C 105.231 93.611,96.156 77.923,84.576 80.365 M134.907 110.737 C 134.245 111.140,133.704 111.652,133.704 111.874 C 133.704 112.287,136.500 119.661,137.102 120.836 C 137.840 122.275,141.125 119.367,141.865 116.619 C 143.111 111.991,138.812 108.356,134.907 110.737 M59.630 171.105 C 57.694 171.278,55.194 171.537,54.074 171.679 L 52.037 171.939 53.498 173.099 C 68.156 184.744,77.348 194.027,75.922 195.746 C 75.080 196.760,74.376 196.319,69.847 191.944 C 65.756 187.993,58.079 181.765,50.127 175.946 L 47.105 173.735 45.497 174.894 C 37.810 180.433,28.444 195.516,20.515 215.122 C 19.417 217.836,18.519 220.114,18.519 220.182 C 18.519 220.250,23.310 222.827,29.167 225.908 C 35.081 229.020,40.252 231.983,40.798 232.573 L 41.781 233.636 42.204 231.958 C 43.443 227.036,48.991 221.111,52.360 221.111 C 52.653 221.111,54.107 219.411,55.591 217.332 C 65.212 203.857,75.105 195.185,80.856 195.185 C 82.216 195.185,102.489 174.815,101.702 174.240 C 101.056 173.767,91.755 172.446,83.519 171.657 C 76.457 170.980,64.195 170.697,59.630 171.105 M95.241 188.749 C 85.416 198.733,74.934 210.807,67.788 220.370 C 66.494 222.102,65.291 223.707,65.116 223.938 C 64.325 224.977,76.220 231.670,83.097 234.055 L 86.379 235.193 86.174 234.356 C 84.841 228.916,84.588 216.911,85.802 216.738 C 86.321 216.664,86.672 216.859,86.798 217.293 C 86.905 217.662,87.577 220.130,88.290 222.778 C 89.004 225.426,90.689 231.676,92.036 236.667 C 95.467 249.389,98.106 257.128,100.412 261.230 C 112.313 282.400,131.456 297.691,151.180 301.781 L 154.248 302.417 155.601 304.893 C 162.005 316.608,169.047 322.358,177.593 322.849 C 198.199 324.034,212.824 304.247,204.473 286.481 C 201.547 280.257,199.222 278.370,192.344 276.639 C 153.988 266.988,126.280 240.299,126.142 212.871 C 126.115 207.491,126.034 206.667,125.529 206.667 C 123.103 206.666,108.685 194.307,102.250 186.712 L 99.935 183.979 95.241 188.749 M129.922 212.551 L 130.861 215.874 133.671 216.122 C 135.217 216.258,140.790 217.270,146.056 218.370 C 157.093 220.676,158.561 220.837,152.593 219.086 C 145.643 217.048,140.887 215.197,135.000 212.241 C 131.944 210.707,129.341 209.401,129.214 209.340 C 129.087 209.279,129.406 210.724,129.922 212.551 M133.241 220.996 C 132.372 221.223,132.390 221.343,133.936 225.479 C 138.201 236.898,145.637 246.615,155.833 254.095 C 158.583 256.111,157.545 254.709,152.963 250.216 C 149.502 246.822,148.518 245.640,148.515 244.873 C 148.513 244.332,149.034 239.508,149.674 234.153 C 150.313 228.798,150.765 224.345,150.678 224.258 C 150.467 224.047,134.819 220.729,134.296 220.784 C 134.072 220.807,133.597 220.903,133.241 220.996 M197.061 221.690 C 195.546 221.968,194.113 222.270,193.876 222.361 C 192.873 222.746,192.928 227.702,193.947 228.800 C 195.994 231.005,196.114 231.544,196.072 238.358 L 196.032 244.679 197.923 245.339 C 204.099 247.496,207.535 255.836,204.747 261.896 C 202.992 265.710,198.528 269.259,195.487 269.259 C 194.687 269.259,194.337 269.495,194.062 270.216 C 193.571 271.509,193.778 271.727,195.937 272.190 C 200.233 273.111,204.779 276.651,207.592 281.265 C 209.128 283.784,213.445 286.516,219.360 288.710 C 221.605 289.543,220.990 290.874,224.994 276.512 C 226.905 269.658,228.873 263.326,229.368 262.441 L 230.267 260.832 227.263 258.606 C 214.933 249.467,206.586 238.390,202.218 225.370 C 200.688 220.810,200.926 220.979,197.061 221.690 M167.963 222.586 C 170.038 223.048,183.038 225.081,185.833 225.380 L 188.148 225.628 188.148 224.349 L 188.148 223.069 178.796 222.825 C 173.653 222.692,168.778 222.509,167.963 222.419 L 166.481 222.256 167.963 222.586 M10.687 223.667 C 9.016 224.981,2.593 242.661,2.593 245.946 C 2.593 249.045,8.232 255.995,11.707 257.179 C 14.979 258.294,21.011 257.586,22.835 255.873 C 24.018 254.761,28.322 246.173,29.268 243.036 C 29.892 240.969,30.227 240.361,30.690 240.453 C 31.990 240.712,30.113 247.814,27.047 254.239 C 25.373 257.745,25.322 258.021,26.132 259.177 C 28.644 262.764,32.911 256.075,36.693 242.621 C 38.548 236.020,39.724 237.322,24.815 229.458 C 11.646 222.513,11.980 222.649,10.687 223.667 M154.218 234.537 L 153.101 243.889 157.669 248.558 L 162.237 253.227 162.011 255.780 L 161.785 258.333 163.022 259.023 C 163.703 259.403,166.113 260.698,168.379 261.902 L 172.500 264.090 172.683 261.953 C 172.832 260.210,172.707 259.497,172.002 258.094 C 168.745 251.611,171.190 243.148,177.198 240.103 C 179.250 239.064,187.057 239.016,189.926 240.026 C 191.507 240.582,191.516 240.568,191.725 237.158 C 192.051 231.832,190.789 230.621,184.074 229.811 C 178.424 229.130,169.557 227.721,161.785 226.270 C 158.591 225.673,155.833 225.185,155.656 225.185 C 155.480 225.185,154.833 229.394,154.218 234.537 M52.188 226.787 C 50.609 227.620,50.552 227.711,50.443 229.586 C 49.875 239.346,60.164 248.328,77.707 253.388 C 82.683 254.823,92.222 256.896,92.222 256.542 C 92.222 256.483,91.712 254.946,91.089 253.125 C 90.465 251.304,89.404 247.821,88.730 245.383 L 87.504 240.952 82.381 239.211 C 75.895 237.008,70.344 234.240,64.379 230.236 C 57.163 225.391,55.646 224.962,52.188 226.787 M179.074 243.316 C 178.667 243.485,177.938 244.048,177.455 244.568 L 176.577 245.514 177.916 245.103 C 178.652 244.877,179.509 244.303,179.821 243.827 C 180.419 242.915,180.278 242.818,179.074 243.316 M186.303 243.740 C 185.495 243.913,184.480 244.588,183.581 245.551 C 181.920 247.333,181.978 247.737,183.750 246.718 C 186.516 245.125,188.720 245.275,191.283 247.231 L 192.908 248.472 192.549 247.441 C 191.685 244.963,188.740 243.218,186.303 243.740 M368.148 246.846 C 362.309 247.554,308.097 253.824,247.778 260.768 C 237.063 262.002,235.605 262.406,234.201 264.532 C 233.502 265.590,203.825 371.022,204.150 371.292 C 204.294 371.412,210.149 370.711,210.307 370.556 C 210.374 370.490,216.498 348.629,223.916 321.977 C 238.580 269.294,237.937 271.371,240.217 269.270 C 242.598 267.075,242.584 267.077,286.481 262.046 C 308.889 259.478,335.056 256.457,344.630 255.334 C 354.204 254.210,364.370 253.043,367.222 252.741 C 370.074 252.438,373.804 251.948,375.511 251.651 C 377.219 251.354,379.719 251.109,381.067 251.105 C 384.243 251.098,384.567 250.887,383.807 249.318 C 382.140 245.874,379.542 245.464,368.148 246.846 M197.407 251.463 C 197.407 253.165,196.647 256.340,195.873 257.870 C 195.056 259.485,195.276 259.578,197.824 258.701 C 201.374 257.478,201.775 256.751,200.536 253.784 C 199.403 251.072,197.407 249.592,197.407 251.463 M44.591 257.851 C 36.264 274.414,32.199 290.696,32.232 307.354 C 32.255 318.621,39.876 330.132,50.894 335.540 C 54.750 337.432,56.259 338.738,60.548 343.889 C 64.976 349.208,68.624 351.180,69.625 348.796 C 70.173 347.490,72.523 335.383,72.986 331.481 C 75.321 311.803,80.556 301.058,90.482 295.566 L 93.148 294.091 91.111 294.289 C 76.435 295.710,72.375 300.282,64.578 324.167 C 61.118 334.765,59.896 332.553,62.394 320.215 C 66.604 299.422,75.048 290.260,90.817 289.373 C 95.537 289.108,95.532 289.154,91.331 284.985 C 79.711 273.454,66.578 274.473,51.089 288.107 C 47.686 291.102,46.389 290.510,48.914 287.113 C 55.969 277.625,65.547 271.930,74.630 271.824 C 77.434 271.791,77.757 271.730,76.667 271.435 C 70.542 269.780,68.139 269.025,64.444 267.591 C 56.906 264.667,51.156 260.836,47.995 256.630 L 46.323 254.406 44.591 257.851 M84.444 273.557 C 90.114 275.901,96.924 281.771,100.573 287.460 C 102.334 290.204,102.449 290.303,104.369 290.733 C 105.459 290.977,107.772 291.657,109.510 292.244 C 112.237 293.166,112.600 293.220,112.168 292.636 C 111.892 292.263,110.484 290.388,109.039 288.469 C 106.343 284.888,104.594 282.206,101.884 277.500 C 100.922 275.829,100.099 274.813,99.706 274.811 C 98.470 274.803,88.715 273.705,86.506 273.325 C 85.270 273.113,83.759 272.854,83.148 272.750 C 82.537 272.646,83.120 273.010,84.444 273.557 M287.778 282.593 C 286.331 284.040,287.272 286.296,289.324 286.296 C 291.220 286.296,292.209 283.737,290.804 282.465 C 289.893 281.641,288.678 281.692,287.778 282.593 M293.104 282.760 C 292.765 283.642,293.237 283.985,294.818 284.007 C 296.426 284.029,300.337 285.716,300.891 286.625 C 301.433 287.516,301.527 290.055,301.040 290.642 C 300.670 291.087,300.718 291.169,301.314 291.104 C 302.529 290.972,302.874 291.087,303.110 291.700 C 303.358 292.347,302.279 294.444,301.698 294.444 C 301.485 294.444,301.502 294.613,301.740 294.852 C 302.558 295.669,303.772 294.860,303.511 293.672 C 303.301 292.714,303.371 292.597,304.137 292.636 C 304.772 292.667,304.828 292.723,304.347 292.849 C 303.988 292.942,303.792 293.176,303.910 293.367 C 304.028 293.559,304.280 293.620,304.470 293.503 C 304.660 293.386,304.815 293.466,304.815 293.682 C 304.815 294.382,305.588 294.098,306.695 292.991 C 307.371 292.315,307.778 292.107,307.778 292.436 C 307.778 292.726,307.932 292.963,308.120 292.963 C 308.310 292.963,308.395 294.025,308.310 295.351 C 308.168 297.562,308.517 298.679,309.070 297.784 C 309.198 297.577,309.480 297.407,309.697 297.407 C 309.942 297.407,309.914 297.620,309.622 297.972 C 309.365 298.282,309.251 298.634,309.370 298.753 C 309.611 298.994,311.468 297.761,312.208 296.869 C 312.469 296.554,312.871 296.300,313.101 296.304 C 313.331 296.308,312.685 297.042,311.667 297.935 C 309.480 299.852,309.563 300.487,311.785 298.852 C 312.637 298.226,313.333 297.856,313.333 298.030 C 313.333 298.204,312.875 298.631,312.315 298.978 L 311.296 299.610 312.527 299.620 C 313.500 299.628,313.731 299.766,313.627 300.278 C 313.528 300.767,313.182 300.904,312.211 300.838 C 311.009 300.756,310.985 300.775,311.841 301.134 C 312.345 301.346,312.881 301.718,313.034 301.963 C 313.247 302.305,313.490 302.296,314.092 301.923 C 314.693 301.550,314.993 301.539,315.397 301.874 C 315.686 302.114,316.256 302.222,316.665 302.115 C 317.176 301.982,317.407 302.103,317.407 302.504 C 317.407 302.824,317.304 302.983,317.178 302.857 C 316.870 302.549,315.926 303.524,315.926 304.152 C 315.926 304.427,316.426 304.841,317.037 305.072 C 317.648 305.302,318.148 305.693,318.148 305.939 C 318.148 306.272,317.997 306.261,317.558 305.898 C 316.971 305.410,311.846 305.064,311.858 305.513 C 311.873 306.133,312.514 306.722,312.753 306.336 C 313.105 305.766,314.025 305.824,314.656 306.455 C 315.556 307.355,315.297 307.861,314.074 307.593 C 313.463 307.458,312.968 307.487,312.975 307.656 C 312.996 308.218,313.883 309.141,314.274 309.009 C 314.486 308.937,314.986 309.140,315.385 309.460 C 316.090 310.024,316.088 310.030,315.302 309.650 C 314.203 309.119,314.197 309.122,313.945 310.278 C 313.537 312.156,313.232 312.345,311.664 311.689 C 310.142 311.053,309.661 311.110,310.522 311.824 C 310.818 312.070,311.655 312.302,312.381 312.339 C 313.428 312.393,313.702 312.560,313.708 313.148 C 313.720 314.374,314.243 314.840,316.148 315.324 C 318.323 315.876,318.560 316.708,317.605 320.436 C 316.174 326.022,312.237 327.651,306.708 324.946 C 305.007 324.114,304.787 323.902,305.389 323.674 C 309.594 322.081,310.750 321.511,312.594 320.125 C 315.989 317.573,316.341 316.795,314.735 315.393 C 314.020 314.770,313.327 313.949,313.195 313.569 C 313.003 313.021,312.847 312.969,312.428 313.316 C 312.012 313.662,311.741 313.593,311.136 312.988 C 310.257 312.109,309.060 311.982,308.771 312.737 C 308.638 313.083,308.939 313.325,309.687 313.474 C 310.300 313.597,311.226 314.032,311.747 314.441 C 312.873 315.327,312.728 315.381,311.228 314.632 C 309.157 313.599,307.778 313.501,307.778 314.387 C 307.778 314.924,307.607 315.096,307.222 314.949 C 306.917 314.831,306.667 314.920,306.667 315.146 C 306.667 315.371,306.945 315.556,307.286 315.556 C 308.195 315.556,309.205 316.610,309.009 317.357 C 308.830 318.041,306.728 316.424,306.169 315.171 C 306.036 314.873,305.987 315.130,306.059 315.741 C 306.132 316.352,306.308 317.122,306.450 317.451 C 306.630 317.870,306.482 318.110,305.960 318.246 C 305.070 318.479,304.341 317.737,304.655 316.919 C 304.848 316.415,304.748 316.396,303.924 316.779 C 303.254 317.090,302.968 317.513,302.966 318.195 C 302.964 318.731,302.708 319.380,302.396 319.639 C 301.570 320.325,300.002 319.538,299.994 318.434 C 299.990 317.803,299.907 317.722,299.661 318.110 C 299.090 319.013,298.105 318.296,298.326 317.138 C 298.435 316.573,298.425 316.319,298.305 316.574 C 297.857 317.523,296.565 317.120,296.819 316.111 C 296.990 315.428,296.904 315.185,296.489 315.185 C 296.179 315.185,295.805 315.173,295.657 315.157 C 295.510 315.142,295.330 315.350,295.259 315.620 C 295.155 316.011,295.201 316.009,295.481 315.609 C 295.944 314.949,296.205 315.426,296.424 317.331 C 296.615 318.989,296.268 319.266,295.106 318.383 C 294.485 317.911,294.470 317.290,295.024 314.856 C 295.213 314.024,295.147 313.983,293.909 314.184 C 292.474 314.417,292.166 314.208,293.318 313.782 C 293.809 313.600,293.944 313.352,293.735 313.013 C 293.223 312.186,291.156 312.842,290.885 313.918 C 290.762 314.411,290.543 314.815,290.400 314.815 C 290.257 314.815,289.773 315.157,289.324 315.574 C 288.876 315.992,288.344 316.232,288.143 316.108 C 287.521 315.724,287.740 315.185,288.519 315.185 C 289.549 315.185,290.741 313.888,290.741 312.766 C 290.741 312.134,291.010 311.728,291.568 311.522 L 292.395 311.216 291.548 310.947 C 290.943 310.755,290.807 310.552,291.070 310.234 C 291.907 309.226,290.850 308.668,289.706 309.515 C 288.585 310.344,286.340 310.805,286.314 310.212 C 286.306 310.022,286.923 309.856,287.684 309.841 C 289.053 309.815,289.067 309.800,288.950 308.428 C 288.823 306.929,289.462 305.939,290.374 306.225 C 291.105 306.454,290.769 306.138,289.678 305.569 C 289.195 305.317,288.905 305.282,289.034 305.490 C 289.183 305.731,288.655 305.846,287.590 305.805 C 286.261 305.754,286.029 305.655,286.475 305.330 C 286.784 305.103,287.037 304.565,287.037 304.133 C 287.037 303.231,288.610 302.641,289.358 303.261 C 289.679 303.528,290.033 303.485,290.535 303.118 C 291.184 302.643,291.023 302.587,288.867 302.537 C 287.555 302.507,286.947 302.411,287.517 302.326 C 288.343 302.201,288.506 302.026,288.325 301.455 C 288.154 300.915,288.276 300.741,288.824 300.741 C 289.224 300.741,289.652 300.477,289.775 300.155 C 290.100 299.307,290.074 299.259,289.281 299.259 C 288.232 299.259,288.115 298.804,288.898 297.767 C 289.452 297.035,289.682 296.944,290.054 297.315 C 290.585 297.845,292.222 297.944,292.222 297.447 C 292.222 297.265,291.972 297.020,291.667 296.903 C 291.359 296.785,291.109 296.230,291.105 295.660 C 291.098 294.327,290.822 293.944,289.309 293.168 C 288.397 292.700,288.173 292.420,288.474 292.119 C 288.775 291.818,289.079 291.901,289.610 292.428 C 290.009 292.824,290.593 293.363,290.908 293.626 C 291.223 293.888,291.481 294.412,291.481 294.790 C 291.481 295.677,292.437 296.035,293.410 295.514 C 294.300 295.038,293.625 294.356,292.638 294.734 C 292.130 294.930,292.126 294.887,292.605 294.374 C 293.073 293.873,293.250 293.863,293.879 294.303 C 295.898 295.717,297.801 293.186,295.926 291.581 C 295.061 290.840,294.973 290.370,295.701 290.370 C 295.984 290.370,296.320 290.784,296.447 291.290 C 296.574 291.795,297.160 292.458,297.750 292.763 C 298.339 293.068,298.910 293.530,299.017 293.789 C 299.374 294.647,300.354 292.972,300.135 291.878 C 300.005 291.227,300.139 290.716,300.524 290.397 C 301.257 289.788,301.273 288.914,300.569 287.909 C 300.270 287.483,300.131 287.029,300.260 286.901 C 300.666 286.495,298.409 286.655,296.480 287.169 C 293.641 287.925,291.492 288.993,289.296 290.738 L 287.296 292.328 287.500 290.886 C 287.613 290.093,287.818 289.164,287.956 288.821 C 288.139 288.369,287.906 288.042,287.107 287.629 C 285.701 286.902,285.528 287.319,285.220 292.194 L 285.000 295.684 283.378 296.540 C 274.378 301.290,274.436 309.498,283.501 314.025 L 285.097 314.823 285.271 318.245 C 285.484 322.429,286.726 325.871,287.596 324.686 C 288.028 324.096,287.990 323.793,287.316 322.500 C 286.885 321.674,286.457 320.076,286.363 318.949 L 286.193 316.900 287.875 318.476 C 290.223 320.677,291.766 321.766,293.211 322.243 C 293.893 322.468,294.368 322.788,294.265 322.953 C 294.163 323.119,294.453 323.257,294.910 323.259 C 298.677 323.281,299.439 324.079,296.804 325.244 C 295.527 325.809,295.185 326.152,295.185 326.869 C 295.185 328.021,295.149 328.025,298.358 326.481 C 299.840 325.769,301.358 325.183,301.730 325.180 C 302.303 325.175,302.322 325.118,301.852 324.815 C 301.546 324.617,301.463 324.456,301.667 324.457 C 301.870 324.457,302.762 324.949,303.647 325.549 C 311.700 331.007,318.828 327.857,319.137 318.704 C 319.199 316.870,319.272 315.287,319.298 315.185 C 319.325 315.083,319.327 314.875,319.303 314.722 C 319.279 314.569,319.643 314.444,320.111 314.444 C 320.580 314.444,321.154 314.253,321.388 314.019 C 322.025 313.382,320.373 312.194,319.256 312.486 C 318.517 312.679,318.436 312.610,318.689 312.004 C 320.062 308.718,320.289 304.894,319.373 300.475 C 318.654 297.007,318.742 296.750,320.358 297.586 C 323.447 299.184,325.556 302.020,325.556 304.578 C 325.556 305.364,325.767 305.928,326.111 306.060 C 326.417 306.177,326.667 306.612,326.667 307.025 C 326.667 308.166,327.398 307.925,327.474 306.759 C 327.758 302.407,326.289 300.031,321.528 297.146 L 319.167 295.715 319.057 292.209 C 318.766 282.922,311.880 279.442,304.127 284.663 L 302.178 285.975 300.411 284.841 C 297.319 282.857,293.485 281.765,293.104 282.760 M311.991 284.520 C 311.890 284.682,312.159 284.815,312.588 284.815 C 314.117 284.815,316.029 287.708,316.631 290.934 C 317.231 294.144,316.848 294.358,314.491 292.128 C 311.461 289.262,310.434 288.636,306.821 287.459 C 303.229 286.288,303.242 286.389,306.481 284.680 C 307.626 284.075,312.350 283.938,311.991 284.520 M308.148 290.926 C 308.148 291.231,307.981 291.481,307.778 291.481 C 307.574 291.481,307.407 291.231,307.407 290.926 C 307.407 290.620,307.574 290.370,307.778 290.370 C 307.981 290.370,308.148 290.620,308.148 290.926 M300.648 292.514 C 300.810 292.937,300.898 292.940,301.157 292.531 C 301.391 292.161,301.472 292.153,301.476 292.500 C 301.479 292.755,301.643 292.963,301.840 292.963 C 302.038 292.963,302.107 292.724,301.995 292.433 C 301.884 292.141,301.490 291.925,301.122 291.953 C 300.715 291.984,300.529 292.204,300.648 292.514 M307.037 293.726 C 307.037 293.941,306.870 294.015,306.667 293.889 C 306.450 293.755,306.296 294.142,306.296 294.824 C 306.296 296.376,307.182 296.088,307.262 294.509 C 307.294 293.863,307.257 293.333,307.179 293.333 C 307.101 293.333,307.037 293.510,307.037 293.726 M299.648 294.237 C 299.404 294.531,298.967 294.680,298.677 294.568 C 298.386 294.456,298.148 294.548,298.148 294.771 C 298.148 295.410,299.996 295.101,300.026 294.456 C 300.044 294.059,300.136 294.103,300.333 294.605 C 300.525 295.097,300.698 295.184,300.884 294.883 C 301.486 293.908,300.395 293.338,299.648 294.237 M313.333 295.164 C 313.333 295.332,313.042 295.566,312.685 295.684 C 312.329 295.802,311.620 296.186,311.111 296.537 C 310.477 296.974,310.594 296.756,311.481 295.845 C 312.668 294.627,313.333 294.382,313.333 295.164 M100.917 297.749 C 93.031 299.011,87.572 302.753,84.091 309.284 C 82.734 311.830,82.696 312.121,83.837 311.235 C 91.649 305.163,94.104 304.259,102.786 304.259 L 108.720 304.259 111.188 305.474 C 114.982 307.343,118.081 311.147,118.902 314.942 C 119.386 317.183,118.979 310.791,118.469 308.148 C 116.892 299.977,110.536 296.211,100.917 297.749 M283.704 297.916 C 283.704 297.993,283.433 298.784,283.103 299.676 C 282.392 301.596,282.249 307.624,282.866 309.722 C 283.442 311.684,282.737 311.553,280.636 309.307 C 277.669 306.135,277.918 302.412,281.307 299.288 C 282.717 297.989,283.704 297.424,283.704 297.916 M290.556 299.259 C 290.681 299.463,291.034 299.630,291.340 299.630 C 291.646 299.630,291.793 299.463,291.667 299.259 C 291.541 299.056,291.188 298.889,290.882 298.889 C 290.577 298.889,290.430 299.056,290.556 299.259 M122.715 303.853 C 122.862 304.240,123.252 305.629,123.581 306.939 L 124.179 309.320 126.442 309.062 C 129.474 308.717,129.534 308.635,127.699 307.320 C 126.826 306.694,125.286 305.500,124.279 304.665 C 123.052 303.650,122.535 303.381,122.715 303.853 M287.802 304.399 C 287.514 304.938,287.522 305.213,287.834 305.405 C 288.100 305.569,288.162 305.508,287.998 305.242 C 287.830 304.970,288.022 304.815,288.528 304.815 C 288.975 304.815,289.257 304.623,289.174 304.375 C 288.921 303.616,288.215 303.628,287.802 304.399 M313.704 304.074 C 313.704 304.278,313.954 304.444,314.259 304.444 C 314.565 304.444,314.815 304.278,314.815 304.074 C 314.815 303.870,314.565 303.704,314.259 303.704 C 313.954 303.704,313.704 303.870,313.704 304.074 M322.305 307.984 C 321.317 308.676,321.241 310.007,322.130 311.045 C 323.143 312.228,325.325 311.391,325.484 309.758 C 325.667 307.871,323.886 306.877,322.305 307.984 M311.296 309.259 C 311.004 309.732,312.231 309.732,312.963 309.259 C 313.397 308.978,313.301 308.899,312.522 308.895 C 311.974 308.891,311.422 309.056,311.296 309.259 M315.131 312.613 C 315.568 313.315,315.575 313.394,315.162 312.963 C 314.869 312.657,314.380 312.180,314.074 311.902 C 313.627 311.495,313.621 311.427,314.042 311.552 C 314.330 311.637,314.820 312.115,315.131 312.613 M291.296 312.222 C 291.026 312.660,291.388 312.660,292.407 312.222 C 293.122 311.915,293.119 311.903,292.337 311.878 C 291.890 311.864,291.422 312.019,291.296 312.222 M300.635 316.408 C 300.493 316.779,300.571 317.037,300.826 317.037 C 301.150 317.037,301.147 317.149,300.815 317.481 C 300.570 317.726,300.381 318.184,300.394 318.500 C 300.408 318.852,300.547 318.752,300.752 318.241 C 300.937 317.782,301.301 317.405,301.562 317.402 C 301.888 317.398,301.909 317.310,301.630 317.124 C 301.406 316.974,301.144 316.610,301.049 316.315 C 300.910 315.881,300.830 315.899,300.635 316.408 M307.778 316.481 C 308.031 316.787,308.406 317.037,308.609 317.037 C 308.816 317.037,308.776 316.791,308.519 316.481 C 308.265 316.176,307.891 315.926,307.687 315.926 C 307.480 315.926,307.521 316.172,307.778 316.481 M301.751 317.812 C 301.391 318.022,301.192 318.350,301.310 318.541 C 301.664 319.114,302.123 318.937,302.330 318.148 C 302.436 317.741,302.497 317.412,302.465 317.419 C 302.433 317.425,302.112 317.602,301.751 317.812 M310.370 321.140 C 310.370 321.328,310.204 321.481,310.000 321.481 C 309.796 321.481,309.630 321.257,309.630 320.983 C 309.630 320.709,309.296 320.184,308.889 319.815 C 308.481 319.446,308.148 319.016,308.148 318.860 C 308.148 318.704,308.648 319.075,309.259 319.687 C 309.870 320.298,310.370 320.952,310.370 321.140 M290.496 324.814 C 288.879 325.466,288.948 327.719,290.608 328.475 C 292.676 329.417,294.380 326.939,292.771 325.330 C 291.806 324.365,291.681 324.336,290.496 324.814 M208.722 329.569 C 207.975 329.654,206.730 330.534,204.792 332.347 C 194.218 342.237,177.448 343.892,168.427 335.935 L 166.669 334.384 145.279 336.836 C 117.949 339.970,119.683 339.600,126.296 340.885 C 143.936 344.311,162.323 346.945,178.233 348.325 C 185.952 348.995,204.158 350.040,204.372 349.826 C 204.644 349.553,209.999 330.191,209.906 329.815 C 209.856 329.611,209.323 329.500,208.722 329.569 M281.775 332.500 C 281.939 334.572,282.075 335.101,282.361 334.784 C 282.907 334.180,282.786 330.370,282.222 330.370 C 281.699 330.370,281.631 330.693,281.775 332.500 M283.922 330.687 C 283.815 330.861,284.161 331.403,284.691 331.891 C 285.222 332.379,286.119 333.409,286.686 334.180 L 287.716 335.581 287.839 332.975 C 287.926 331.141,287.833 330.369,287.523 330.370 C 287.225 330.370,287.151 330.816,287.294 331.759 L 287.504 333.148 286.051 331.759 C 284.534 330.308,284.246 330.163,283.922 330.687 M289.079 331.019 C 289.226 331.375,289.355 331.875,289.365 332.130 C 289.375 332.384,289.468 332.507,289.573 332.402 C 289.861 332.114,291.852 334.139,291.852 334.721 C 291.852 335.000,292.019 335.126,292.222 335.000 C 292.978 334.533,292.550 333.349,291.097 331.881 C 289.526 330.295,288.617 329.906,289.079 331.019 M294.317 331.048 C 293.117 332.374,294.087 335.556,295.691 335.556 C 296.545 335.556,297.778 333.881,297.778 332.719 C 297.778 330.688,295.595 329.635,294.317 331.048 M298.519 330.511 C 298.519 330.622,298.825 331.511,299.201 332.486 C 299.576 333.461,300.008 334.593,300.160 335.000 C 300.392 335.618,300.555 335.435,301.147 333.889 C 301.537 332.870,302.034 331.729,302.250 331.353 C 302.687 330.595,302.488 330.162,301.876 330.540 C 301.659 330.675,301.479 331.150,301.476 331.596 C 301.464 333.330,300.840 333.532,300.125 332.033 C 299.548 330.826,298.519 329.850,298.519 330.511 M303.274 332.578 C 303.438 335.503,304.444 335.834,304.444 332.963 C 304.444 331.944,304.486 330.986,304.537 330.833 C 304.588 330.681,304.296 330.507,303.889 330.449 C 303.207 330.350,303.158 330.519,303.274 332.578 M305.802 330.617 C 305.241 331.179,305.625 332.221,306.667 332.963 C 307.278 333.398,307.778 333.998,307.778 334.296 C 307.778 335.126,306.627 335.398,306.109 334.690 C 305.552 333.927,305.185 333.901,305.185 334.623 C 305.185 335.274,306.676 335.720,307.732 335.385 C 309.110 334.948,309.126 333.666,307.768 332.532 C 306.738 331.672,306.622 331.426,307.023 330.942 C 307.519 330.346,306.378 330.042,305.802 330.617 M309.630 332.593 C 309.630 334.321,309.753 334.815,310.185 334.815 C 310.595 334.815,310.741 334.386,310.741 333.178 C 310.741 332.278,310.842 331.278,310.966 330.956 C 311.127 330.536,310.969 330.370,310.410 330.370 C 309.703 330.370,309.630 330.580,309.630 332.593 M312.593 331.111 C 311.645 332.059,311.653 333.125,312.618 334.480 C 313.561 335.804,314.283 335.838,315.420 334.611 C 317.639 332.217,314.889 328.814,312.593 331.111 M317.141 332.870 C 317.139 335.217,317.152 335.258,317.365 333.545 L 317.593 331.720 318.753 333.046 C 319.392 333.776,319.994 334.597,320.092 334.872 C 320.402 335.745,320.635 335.066,320.841 332.685 C 320.952 331.403,320.891 330.370,320.706 330.370 C 320.521 330.370,320.364 330.995,320.356 331.759 L 320.343 333.148 319.153 331.759 C 317.460 329.783,317.145 329.957,317.141 332.870 M296.601 332.184 C 296.830 334.575,295.701 336.322,295.040 334.599 C 294.732 333.797,294.756 331.294,295.075 330.975 C 295.690 330.359,296.487 330.991,296.601 332.184 M315.039 331.692 C 315.351 332.933,314.748 335.000,314.074 335.000 C 313.312 335.000,312.830 332.988,313.298 331.759 C 313.785 330.478,314.726 330.441,315.039 331.692 " stroke="none" fill="#ffffff" fill-rule="evenodd"></path><path id="path1" d="M177.336 245.238 C 175.131 246.045,174.299 249.411,175.870 251.169 L 176.925 252.350 177.190 250.342 C 177.337 249.237,177.779 247.604,178.173 246.712 C 179.137 244.530,179.160 244.571,177.336 245.238 M185.468 245.924 C 184.618 246.180,181.852 247.694,181.852 247.903 C 181.852 247.939,181.695 248.514,181.504 249.182 C 180.284 253.434,188.195 255.916,192.084 252.502 C 195.452 249.544,190.337 244.458,185.468 245.924 M380.185 251.120 C 378.148 251.265,375.565 251.570,374.444 251.798 C 373.324 252.025,370.074 252.455,367.222 252.751 C 364.370 253.048,354.204 254.210,344.630 255.334 C 335.056 256.457,308.889 259.478,286.481 262.046 C 238.596 267.534,240.195 267.201,238.021 272.122 C 237.443 273.429,210.314 370.437,210.479 370.603 C 210.548 370.671,234.117 368.082,242.963 367.035 C 256.997 365.373,273.462 363.494,278.704 362.956 C 280.944 362.726,283.361 362.461,284.074 362.367 C 284.787 362.274,287.620 361.957,290.370 361.664 C 293.120 361.371,296.637 360.943,298.185 360.714 C 299.734 360.485,313.482 358.854,328.738 357.090 L 356.475 353.882 370.011 305.367 C 377.456 278.684,383.745 256.269,383.986 255.556 C 384.562 253.854,384.729 251.026,384.259 250.931 C 384.056 250.890,382.222 250.975,380.185 251.120 M290.804 282.465 C 292.209 283.737,291.220 286.296,289.324 286.296 C 287.272 286.296,286.331 284.040,287.778 282.593 C 288.678 281.692,289.893 281.641,290.804 282.465 M296.486 282.965 C 297.673 283.373,299.439 284.217,300.411 284.841 L 302.178 285.975 304.127 284.663 C 311.880 279.442,318.766 282.922,319.057 292.209 L 319.167 295.715 321.528 297.146 C 326.289 300.031,327.758 302.407,327.474 306.759 C 327.398 307.925,326.667 308.166,326.667 307.025 C 326.667 306.612,326.417 306.177,326.111 306.060 C 325.767 305.928,325.556 305.364,325.556 304.578 C 325.556 302.020,323.447 299.184,320.358 297.586 C 318.742 296.750,318.654 297.007,319.373 300.475 C 320.289 304.894,320.062 308.718,318.689 312.004 C 318.436 312.610,318.517 312.679,319.256 312.486 C 320.373 312.194,322.025 313.382,321.388 314.019 C 321.154 314.253,320.580 314.444,320.111 314.444 C 319.643 314.444,319.279 314.569,319.303 314.722 C 319.327 314.875,319.325 315.083,319.298 315.185 C 319.272 315.287,319.199 316.870,319.137 318.704 C 318.828 327.857,311.700 331.007,303.647 325.549 C 302.762 324.949,301.870 324.457,301.667 324.457 C 301.463 324.456,301.546 324.617,301.852 324.815 C 302.322 325.118,302.303 325.175,301.730 325.180 C 301.358 325.183,299.840 325.769,298.358 326.481 C 295.149 328.025,295.185 328.021,295.185 326.869 C 295.185 326.152,295.527 325.809,296.804 325.244 C 299.439 324.079,298.677 323.281,294.910 323.259 C 294.453 323.257,294.163 323.119,294.265 322.953 C 294.368 322.788,293.893 322.468,293.211 322.243 C 291.766 321.766,290.223 320.677,287.875 318.476 L 286.193 316.900 286.363 318.949 C 286.457 320.076,286.885 321.674,287.316 322.500 C 287.990 323.793,288.028 324.096,287.596 324.686 C 286.726 325.871,285.484 322.429,285.271 318.245 L 285.097 314.823 283.475 314.013 C 281.306 312.929,277.994 309.934,277.412 308.529 C 276.877 307.237,275.926 307.577,275.926 309.060 C 275.926 309.587,275.577 310.040,274.952 310.325 C 273.523 310.976,273.547 310.693,275.089 308.714 C 276.221 307.261,276.481 306.614,276.511 305.176 C 276.576 302.045,279.199 298.746,283.378 296.540 L 285.000 295.684 285.220 292.194 C 285.528 287.319,285.701 286.902,287.107 287.629 C 287.906 288.042,288.139 288.369,287.956 288.821 C 287.818 289.164,287.613 290.093,287.500 290.886 L 287.296 292.328 289.296 290.738 C 292.243 288.396,296.559 286.682,299.537 286.671 C 300.199 286.669,300.739 286.542,300.737 286.389 C 300.729 285.834,296.216 284.027,294.789 284.007 C 293.236 283.985,292.767 283.638,293.104 282.760 C 293.377 282.048,293.916 282.080,296.486 282.965 M306.481 284.680 C 303.242 286.389,303.229 286.288,306.821 287.459 C 310.434 288.636,311.461 289.262,314.491 292.128 C 316.848 294.358,317.231 294.144,316.631 290.934 C 316.029 287.708,314.117 284.815,312.588 284.815 C 312.159 284.815,311.890 284.682,311.991 284.520 C 312.350 283.938,307.626 284.075,306.481 284.680 M294.972 294.978 C 291.196 296.279,291.591 301.111,295.473 301.111 C 298.236 301.111,299.370 298.516,297.685 296.047 C 296.678 294.572,296.432 294.475,294.972 294.978 M281.307 299.288 C 277.918 302.412,277.669 306.135,280.636 309.307 C 282.737 311.553,283.442 311.684,282.866 309.722 C 282.249 307.624,282.392 301.596,283.103 299.676 C 284.030 297.175,283.682 297.100,281.307 299.288 M324.753 307.999 C 326.116 308.953,325.744 310.800,324.074 311.364 C 322.918 311.755,322.708 311.720,322.130 311.045 C 320.397 309.022,322.586 306.480,324.753 307.999 M315.745 317.063 C 314.327 318.987,310.919 321.636,310.330 321.271 C 310.066 321.108,309.982 321.153,310.124 321.383 C 310.334 321.722,309.591 322.082,305.389 323.674 C 304.787 323.902,305.007 324.114,306.708 324.946 C 312.237 327.651,316.174 326.022,317.605 320.436 C 318.735 316.023,317.783 314.296,315.745 317.063 M292.771 325.330 C 294.380 326.939,292.676 329.417,290.608 328.475 C 288.472 327.502,289.168 324.661,291.591 324.468 C 291.753 324.455,292.284 324.843,292.771 325.330 M282.670 332.500 C 282.505 334.572,282.369 335.101,282.083 334.784 C 281.538 334.180,281.658 330.370,282.222 330.370 C 282.745 330.370,282.813 330.693,282.670 332.500 M286.051 331.759 L 287.504 333.148 287.294 331.759 C 287.151 330.816,287.225 330.370,287.523 330.370 C 287.833 330.369,287.926 331.141,287.839 332.975 L 287.716 335.581 286.686 334.180 C 286.119 333.409,285.222 332.379,284.691 331.891 C 283.837 331.105,283.676 330.370,284.358 330.370 C 284.490 330.370,285.252 330.995,286.051 331.759 M291.097 331.881 C 292.550 333.349,292.978 334.533,292.222 335.000 C 292.019 335.126,291.852 335.000,291.852 334.721 C 291.852 334.139,289.861 332.114,289.573 332.402 C 289.468 332.507,289.375 332.384,289.365 332.130 C 289.355 331.875,289.226 331.375,289.079 331.019 C 288.617 329.906,289.526 330.295,291.097 331.881 M297.100 330.983 C 298.023 331.818,297.960 333.647,296.972 334.698 C 295.969 335.767,295.420 335.777,294.459 334.745 C 292.405 332.541,294.898 328.991,297.100 330.983 M300.125 332.033 C 300.840 333.532,301.464 333.330,301.476 331.596 C 301.479 331.150,301.659 330.675,301.876 330.540 C 302.488 330.162,302.687 330.595,302.250 331.353 C 302.034 331.729,301.537 332.870,301.147 333.889 C 300.555 335.435,300.392 335.618,300.160 335.000 C 300.008 334.593,299.576 333.461,299.201 332.486 C 298.159 329.779,298.879 329.426,300.125 332.033 M304.537 330.833 C 304.486 330.986,304.444 331.944,304.444 332.963 C 304.444 335.834,303.438 335.503,303.274 332.578 C 303.158 330.519,303.207 330.350,303.889 330.449 C 304.296 330.507,304.588 330.681,304.537 330.833 M307.023 330.942 C 306.622 331.426,306.738 331.672,307.768 332.532 C 309.126 333.666,309.110 334.948,307.732 335.385 C 306.676 335.720,305.185 335.274,305.185 334.623 C 305.185 333.901,305.552 333.927,306.109 334.690 C 306.627 335.398,307.778 335.126,307.778 334.296 C 307.778 333.998,307.278 333.398,306.667 332.963 C 305.108 331.853,305.170 330.370,306.774 330.370 C 307.385 330.370,307.424 330.460,307.023 330.942 M310.966 330.956 C 310.842 331.278,310.741 332.278,310.741 333.178 C 310.741 334.386,310.595 334.815,310.185 334.815 C 309.753 334.815,309.630 334.321,309.630 332.593 C 309.630 330.580,309.703 330.370,310.410 330.370 C 310.969 330.370,311.127 330.536,310.966 330.956 M315.619 330.983 C 316.958 332.196,315.742 335.556,313.964 335.556 C 313.227 335.556,311.852 333.649,311.852 332.628 C 311.852 330.808,314.262 329.755,315.619 330.983 M319.153 331.759 L 320.343 333.148 320.356 331.759 C 320.364 330.995,320.521 330.370,320.706 330.370 C 320.891 330.370,320.952 331.403,320.841 332.685 C 320.635 335.066,320.402 335.745,320.092 334.872 C 319.994 334.597,319.392 333.776,318.753 333.046 L 317.593 331.720 317.365 333.545 C 317.152 335.258,317.139 335.217,317.141 332.870 C 317.145 329.957,317.460 329.783,319.153 331.759 M295.075 330.975 C 294.756 331.294,294.732 333.797,295.040 334.599 C 295.377 335.478,296.252 335.305,296.502 334.311 C 297.043 332.154,296.100 329.950,295.075 330.975 M313.298 331.759 C 312.830 332.988,313.312 335.000,314.074 335.000 C 314.364 335.000,314.754 334.470,314.940 333.821 C 315.639 331.383,314.152 329.516,313.298 331.759 M120.819 341.505 C 120.470 342.880,120.506 343.039,121.237 343.352 C 123.589 344.360,198.333 371.050,198.456 370.926 C 198.666 370.716,204.380 350.207,204.264 350.078 C 204.212 350.019,199.810 349.729,194.484 349.433 C 171.361 348.148,150.199 345.536,128.445 341.282 C 124.840 340.577,121.736 340.000,121.546 340.000 C 121.356 340.000,121.029 340.677,120.819 341.505 " stroke="none" fill="#3bacf1" fill-rule="evenodd"></path><path id="path2" d="M179.630 3.925 C 140.272 6.572,107.229 28.328,90.426 62.658 C 88.080 67.452,87.015 69.259,86.449 69.409 C 83.793 70.112,77.216 75.450,74.373 79.208 C 73.504 80.356,72.148 82.046,71.360 82.963 C 60.498 95.593,58.931 117.665,67.935 131.230 C 70.780 135.515,79.115 142.454,83.616 144.284 C 85.586 145.084,85.719 145.224,86.469 147.284 C 88.049 151.621,91.251 158.225,94.063 162.944 C 97.303 168.383,97.397 168.057,92.778 167.387 C 78.362 165.297,61.519 165.087,51.372 166.871 C 38.552 169.125,27.586 183.841,14.060 216.944 C 13.781 217.628,13.431 217.778,12.118 217.778 C 7.382 217.778,5.270 220.429,1.258 231.407 L 0.000 234.852 0.000 248.894 L 0.000 262.937 1.111 264.203 L 2.222 265.468 2.222 270.479 C 2.222 284.673,8.723 293.506,24.946 301.358 L 27.115 302.407 26.882 305.556 C 25.152 328.895,34.806 350.035,50.433 357.127 C 56.894 360.059,60.501 363.799,64.766 371.990 C 68.591 379.334,70.785 381.577,77.255 384.753 C 81.770 386.970,82.566 387.147,87.178 386.955 C 98.943 386.466,108.779 377.291,114.996 361.007 C 115.538 359.587,116.063 358.747,116.364 358.818 C 116.911 358.946,124.150 361.701,160.508 375.616 C 196.362 389.339,201.823 390.405,223.148 387.847 C 226.815 387.407,236.398 386.300,244.444 385.386 C 252.491 384.473,264.157 383.140,270.370 382.424 C 276.583 381.708,289.667 380.202,299.444 379.078 C 339.330 374.494,342.648 374.063,345.628 373.079 C 351.240 371.225,356.084 367.049,358.638 361.862 C 359.489 360.134,360.477 358.424,360.833 358.063 C 361.190 357.703,361.481 357.059,361.481 356.633 C 361.481 355.913,366.749 336.875,383.196 278.148 C 391.195 249.589,391.222 249.331,386.832 244.471 C 382.898 240.117,381.718 239.992,363.956 242.045 C 302.744 249.120,288.483 250.760,264.259 253.516 C 249.185 255.230,236.310 256.824,235.648 257.057 C 232.781 258.065,219.896 246.477,214.006 237.593 C 208.230 228.882,202.972 213.376,205.603 212.811 C 282.660 196.281,315.730 108.250,268.574 45.185 C 248.570 18.432,212.527 1.712,179.630 3.925 M197.778 9.785 C 209.922 11.432,222.359 15.494,233.202 21.357 C 237.025 23.424,236.958 23.629,232.849 22.438 C 187.837 9.394,137.181 28.848,112.611 68.613 L 110.221 72.480 108.052 71.078 C 104.586 68.838,97.729 67.095,94.679 67.678 C 93.390 67.924,93.365 68.017,95.971 62.905 C 111.751 31.953,142.666 11.941,179.074 9.111 C 182.504 8.845,193.857 9.254,197.778 9.785 M210.000 23.343 C 224.408 24.433,239.735 28.675,250.186 34.464 C 255.475 37.394,261.954 44.325,268.334 53.880 C 270.904 57.727,276.450 67.828,274.549 65.198 C 274.186 64.696,272.955 62.976,271.814 61.375 C 257.558 41.379,233.777 29.796,205.370 29.011 C 170.188 28.039,136.024 47.528,119.378 78.066 C 117.896 80.784,117.585 81.152,117.247 80.591 C 117.030 80.229,116.227 79.085,115.463 78.048 C 113.778 75.761,113.780 76.100,115.432 73.261 C 128.450 50.885,151.505 33.586,177.511 26.678 C 186.706 24.236,190.270 23.742,203.889 23.023 C 204.500 22.991,207.250 23.135,210.000 23.343 M215.028 44.468 C 253.544 48.216,275.316 72.666,275.362 112.222 C 275.381 129.437,269.588 141.972,257.030 151.886 C 253.167 154.935,253.200 154.934,254.444 151.966 C 260.815 136.769,263.293 112.328,259.789 99.236 C 255.756 84.165,242.297 70.419,221.265 59.888 C 211.249 54.874,203.269 52.004,189.526 48.473 C 187.864 48.046,188.020 47.585,190.140 46.652 C 194.892 44.561,205.982 43.587,215.028 44.468 M101.653 73.407 C 118.942 79.104,124.170 109.001,111.268 128.392 C 104.826 138.073,95.183 142.642,86.667 140.048 L 85.000 139.540 86.961 139.033 C 112.983 132.300,114.912 78.766,89.259 75.261 L 86.852 74.932 88.333 74.257 C 92.786 72.230,97.220 71.947,101.653 73.407 M154.750 74.841 C 164.680 79.803,163.207 96.770,152.418 101.709 C 145.850 104.716,139.013 102.303,136.265 96.009 C 130.935 83.798,143.616 69.277,154.750 74.841 M91.375 80.799 C 103.386 85.279,106.775 108.820,97.625 124.213 C 89.950 137.123,77.473 138.183,70.923 126.481 C 59.913 106.813,74.395 74.466,91.375 80.799 M140.192 110.526 C 143.043 112.394,143.008 117.342,140.126 120.069 C 134.658 125.242,127.974 117.775,132.975 112.080 C 135.093 109.668,137.945 109.053,140.192 110.526 M115.183 146.481 C 130.004 188.678,178.412 211.947,226.852 200.159 C 228.687 199.713,222.398 202.383,218.059 203.892 C 208.560 207.197,199.197 209.111,194.444 208.720 C 151.497 205.189,118.953 180.542,107.774 143.080 L 106.979 140.418 109.507 138.024 L 112.035 135.629 113.023 139.389 C 113.567 141.456,114.539 144.648,115.183 146.481 M104.247 148.024 C 112.991 174.110,134.226 196.131,160.091 205.935 C 164.459 207.591,164.004 207.644,158.463 206.125 C 129.309 198.134,105.037 177.218,92.989 149.706 C 91.119 145.436,91.111 145.556,93.266 145.556 C 95.268 145.556,99.607 144.507,101.296 143.615 C 102.676 142.886,102.373 142.434,104.247 148.024 M85.741 171.636 C 93.879 172.544,101.623 173.733,102.130 174.153 C 102.480 174.442,100.372 176.744,93.602 183.472 C 81.063 195.932,69.324 209.379,61.263 220.515 C 60.491 221.582,60.486 221.583,58.535 221.115 C 51.677 219.470,44.653 224.184,42.418 231.932 L 41.807 234.048 40.751 232.858 C 40.053 232.070,36.106 229.786,29.091 226.111 C 19.058 220.855,18.496 220.506,18.660 219.630 C 18.933 218.177,23.409 207.632,26.070 202.172 C 34.033 185.837,44.813 172.178,48.074 174.291 C 53.105 177.551,65.364 187.401,71.007 192.717 C 74.725 196.220,75.570 196.647,76.091 195.290 C 76.715 193.663,67.655 184.696,55.833 175.239 C 51.263 171.582,51.233 171.709,56.780 171.141 C 61.656 170.642,79.573 170.948,85.741 171.636 M110.714 183.816 C 130.978 203.678,156.537 214.444,183.424 214.444 L 188.889 214.444 188.886 215.833 C 188.882 217.362,188.183 225.649,188.048 225.771 C 187.418 226.338,163.054 222.101,144.062 218.122 C 139.268 217.118,134.403 216.296,133.250 216.296 C 130.716 216.296,130.883 216.528,129.246 210.743 C 127.406 204.243,126.610 204.196,126.083 210.556 C 123.853 237.457,153.229 266.548,192.698 276.526 C 197.453 277.728,198.630 278.337,200.960 280.801 C 207.466 287.680,210.234 304.158,207.189 317.880 C 203.582 334.129,182.100 341.709,170.387 330.865 C 166.845 327.585,163.974 323.423,158.518 313.658 C 156.000 309.152,151.379 306.617,148.494 308.161 C 146.773 309.082,147.810 311.852,149.876 311.852 C 150.997 311.852,154.017 313.885,153.566 314.335 C 152.601 315.300,138.038 308.471,132.157 304.296 C 112.415 290.281,101.259 271.536,91.795 236.481 C 86.668 217.489,86.477 216.852,85.911 216.852 C 85.181 216.852,85.251 228.177,86.006 232.315 C 86.635 235.761,86.877 235.678,81.764 233.757 C 75.941 231.568,64.815 225.378,64.815 224.326 C 64.815 223.213,78.467 206.471,86.411 197.842 C 91.552 192.257,104.994 178.889,105.468 178.889 C 105.589 178.889,107.949 181.106,110.714 183.816 M200.136 217.096 C 203.318 233.694,216.439 252.716,229.985 260.367 C 230.439 260.623,230.372 260.958,229.560 262.466 C 229.030 263.452,228.085 266.093,227.461 268.333 C 214.728 314.086,215.943 310.219,214.535 309.491 L 213.445 308.927 213.222 303.816 C 212.453 286.146,205.806 274.389,195.359 272.220 C 194.245 271.989,193.333 271.753,193.333 271.696 C 193.333 270.457,194.284 269.303,195.486 269.082 C 207.796 266.816,209.164 249.474,197.365 245.283 C 195.811 244.732,195.622 244.548,195.748 243.718 C 196.737 237.225,196.159 231.958,194.172 229.355 L 192.857 227.633 193.293 222.242 C 193.998 213.536,193.798 214.134,196.048 213.976 C 197.101 213.901,198.306 213.810,198.724 213.772 C 199.401 213.711,199.559 214.082,200.136 217.096 M143.116 222.370 C 147.336 223.266,150.850 224.060,150.924 224.134 C 150.999 224.209,150.491 228.934,149.797 234.635 C 149.102 240.336,148.530 245.152,148.526 245.339 C 148.522 245.525,150.635 247.816,153.222 250.431 C 158.401 255.665,158.588 256.566,153.673 252.606 C 144.233 244.999,137.724 236.118,133.661 225.301 C 131.614 219.853,131.470 219.897,143.116 222.370 M25.050 229.384 C 39.585 237.052,38.674 236.097,37.047 241.957 C 32.307 259.028,26.478 267.022,18.763 267.033 L 16.230 267.037 18.022 265.618 C 23.596 261.207,28.135 253.547,30.385 244.753 C 31.692 239.644,30.984 238.615,29.399 243.321 C 24.787 257.018,13.733 267.725,8.296 263.762 C -0.098 257.644,-0.178 247.850,8.005 228.186 C 10.799 221.472,9.935 221.411,25.050 229.384 M165.172 226.671 C 169.748 227.489,175.915 228.491,178.876 228.897 C 190.209 230.451,190.175 230.441,191.356 232.689 C 191.913 233.748,192.194 240.151,191.706 240.640 C 191.640 240.705,190.682 240.523,189.577 240.235 C 177.797 237.167,170.070 242.381,170.821 252.890 C 171.412 261.140,176.987 264.760,187.897 263.980 L 190.436 263.798 190.176 266.436 C 189.837 269.864,189.495 270.510,188.158 270.243 C 183.911 269.393,168.327 262.546,163.261 259.303 L 161.521 258.190 161.741 255.572 L 161.960 252.954 157.423 248.607 L 152.885 244.259 153.854 236.111 C 155.304 223.928,155.147 224.717,156.065 224.969 C 156.498 225.087,160.596 225.854,165.172 226.671 M58.333 226.250 C 59.148 226.624,61.981 228.389,64.630 230.174 C 71.698 234.938,78.546 238.081,87.268 240.563 C 87.496 240.628,87.979 241.903,88.341 243.396 C 89.232 247.079,91.783 254.874,93.691 259.746 C 95.581 264.570,95.858 264.243,90.506 263.510 C 61.898 259.592,46.853 250.659,46.852 237.593 C 46.852 228.975,52.373 223.521,58.333 226.250 M43.675 246.614 C 44.036 247.288,43.654 248.304,40.976 253.792 C 33.185 269.761,29.834 280.088,28.115 293.425 L 27.650 297.035 25.214 295.703 C 12.505 288.757,7.985 282.977,7.215 272.685 C 6.926 268.820,6.855 268.892,9.676 270.139 C 23.706 276.337,34.616 267.850,40.960 245.802 L 42.008 242.160 42.632 243.994 C 42.974 245.003,43.444 246.182,43.675 246.614 M179.845 244.187 C 177.082 247.809,176.400 254.410,178.391 258.259 C 179.110 259.649,178.760 259.950,177.494 259.030 C 172.622 255.494,174.440 242.963,179.824 242.963 L 180.778 242.963 179.845 244.187 M189.143 243.728 C 195.961 246.312,194.057 260.376,186.890 260.369 C 181.594 260.364,179.029 252.329,182.518 246.674 C 184.298 243.788,186.599 242.765,189.143 243.728 M381.879 246.871 C 384.319 248.562,385.308 251.503,384.428 254.447 C 384.215 255.159,377.886 277.806,370.362 304.775 C 362.839 331.745,356.627 353.867,356.557 353.937 C 356.488 354.006,343.526 355.560,327.752 357.390 C 311.979 359.219,297.824 360.882,296.296 361.084 C 294.769 361.286,291.102 361.714,288.148 362.034 C 285.194 362.354,281.444 362.780,279.815 362.980 C 278.185 363.180,270.102 364.095,261.852 365.015 C 253.602 365.934,245.685 366.844,244.259 367.037 C 237.916 367.896,204.075 371.606,203.928 371.459 C 203.838 371.369,210.250 348.045,218.177 319.629 C 226.104 291.213,232.766 267.329,232.981 266.553 C 233.547 264.518,235.597 262.406,237.499 261.899 C 238.366 261.669,258.741 259.226,282.778 256.472 C 306.815 253.717,337.731 250.142,351.481 248.526 C 378.241 245.382,379.623 245.307,381.879 246.871 M200.165 252.709 C 202.934 257.435,199.803 264.815,195.029 264.815 C 194.155 264.815,194.657 260.317,195.835 257.593 C 196.496 256.063,196.848 254.478,196.964 252.508 L 197.131 249.646 198.194 250.403 C 198.778 250.819,199.665 251.857,200.165 252.709 M48.195 252.843 C 53.793 259.677,75.063 267.210,92.963 268.697 C 97.824 269.101,97.638 268.998,99.229 272.162 C 102.654 278.973,107.757 286.941,111.941 292.011 C 112.924 293.203,113.008 293.428,112.404 293.255 C 110.043 292.579,103.085 290.622,102.741 290.537 C 102.518 290.482,101.373 288.991,100.197 287.223 C 90.067 271.999,73.658 267.606,60.310 276.544 C 55.973 279.449,47.778 287.723,47.778 289.197 C 47.778 290.215,48.721 289.899,50.658 288.231 C 67.726 273.537,81.355 273.049,93.183 286.707 C 95.766 289.690,95.800 289.629,91.574 289.632 C 80.697 289.640,72.310 294.751,67.768 304.138 C 64.247 311.418,60.027 329.064,61.464 330.501 C 62.082 331.120,62.334 330.574,64.421 324.074 C 71.857 300.918,77.022 295.016,90.556 294.212 L 93.889 294.013 91.240 295.369 C 81.328 300.443,75.666 311.215,73.525 329.074 C 73.208 331.722,72.040 338.389,70.930 343.889 C 68.561 355.625,67.984 360.041,68.238 364.487 L 68.424 367.745 66.460 364.706 C 65.380 363.034,63.780 360.333,62.905 358.704 C 61.221 355.568,56.850 350.786,53.790 348.730 C 51.624 347.275,51.613 347.548,53.709 350.749 C 56.016 354.274,56.008 354.311,53.241 352.925 C 38.617 345.599,32.064 331.730,32.084 308.148 C 32.099 289.970,35.334 276.645,44.157 258.426 C 47.294 251.947,47.373 251.838,48.195 252.843 M111.899 298.449 C 117.198 301.022,119.320 306.126,119.315 316.296 C 119.312 321.082,118.587 328.633,118.090 329.050 C 118.020 329.109,109.088 329.264,98.241 329.395 L 78.519 329.633 78.519 328.376 C 78.519 325.444,80.799 315.614,81.596 315.107 C 81.839 314.952,90.245 314.824,100.278 314.820 C 110.310 314.817,118.519 314.695,118.519 314.549 C 118.519 314.403,118.246 313.570,117.913 312.698 L 117.307 311.111 100.783 311.111 L 84.259 311.111 83.055 312.500 C 81.874 313.862,81.859 313.868,82.241 312.794 C 84.910 305.316,91.163 299.627,98.545 297.962 C 102.308 297.113,109.702 297.383,111.899 298.449 M288.062 302.491 C 288.728 302.573,289.728 302.571,290.284 302.487 C 290.841 302.402,290.296 302.335,289.074 302.337 C 287.852 302.339,287.397 302.408,288.062 302.491 M315.097 302.484 C 315.558 302.573,316.224 302.569,316.578 302.477 C 316.932 302.384,316.556 302.312,315.741 302.316 C 314.926 302.320,314.636 302.396,315.097 302.484 M125.000 305.028 C 132.684 311.509,145.036 317.698,153.359 319.238 C 154.697 319.486,155.961 319.800,156.167 319.937 C 156.581 320.211,159.355 324.858,159.182 324.989 C 159.123 325.034,156.241 325.271,152.778 325.517 C 146.386 325.969,126.780 327.958,124.486 328.386 L 123.232 328.620 123.460 327.366 C 124.683 320.660,124.571 311.711,123.198 306.264 C 122.748 304.478,122.552 303.117,122.764 303.241 C 122.975 303.365,123.981 304.169,125.000 305.028 M274.815 309.259 C 274.059 310.320,274.156 310.671,275.043 310.087 C 275.474 309.803,276.113 308.148,275.791 308.148 C 275.689 308.148,275.250 308.648,274.815 309.259 M310.463 309.722 C 310.065 310.810,310.075 310.857,310.567 310.207 C 311.038 309.585,311.316 308.519,311.007 308.519 C 310.950 308.519,310.705 309.060,310.463 309.722 M306.871 314.053 C 306.513 314.448,306.279 314.944,306.351 315.155 C 306.423 315.366,306.765 315.043,307.112 314.436 C 307.846 313.154,307.780 313.049,306.871 314.053 M213.968 314.742 C 214.759 315.244,212.159 323.858,211.172 324.006 L 210.394 324.123 211.095 322.085 C 211.480 320.965,212.007 318.787,212.266 317.246 C 212.720 314.544,213.003 314.128,213.968 314.742 M303.148 315.556 L 302.037 315.838 303.034 315.882 C 303.582 315.906,304.133 315.759,304.259 315.556 C 304.385 315.352,304.437 315.205,304.374 315.229 C 304.311 315.253,303.759 315.400,303.148 315.556 M298.561 316.359 C 298.538 316.698,298.423 317.282,298.305 317.655 C 298.103 318.298,298.114 318.299,298.515 317.674 C 298.748 317.311,298.864 316.727,298.772 316.377 C 298.621 315.804,298.600 315.802,298.561 316.359 M210.370 329.436 C 210.370 329.722,199.630 368.193,199.098 369.815 C 198.798 370.728,198.416 371.251,198.102 371.178 C 197.654 371.074,164.213 359.094,131.667 347.378 L 120.556 343.379 120.631 341.817 C 120.746 339.461,120.001 339.620,143.996 336.833 L 166.481 334.222 168.889 336.059 C 178.693 343.539,194.410 341.843,204.612 332.204 C 206.048 330.847,207.472 329.643,207.778 329.528 C 208.472 329.265,210.370 329.198,210.370 329.436 M158.704 329.859 C 158.296 329.929,150.546 330.825,141.481 331.849 C 132.417 332.873,124.441 333.804,123.757 333.917 C 122.831 334.070,122.556 333.998,122.676 333.635 C 122.778 333.330,124.071 332.982,126.141 332.702 C 130.294 332.142,150.912 330.053,153.889 329.891 C 156.980 329.722,159.591 329.705,158.704 329.859 M117.219 334.167 C 117.083 334.829,116.394 337.809,115.688 340.790 L 114.404 346.209 95.072 346.373 C 84.440 346.463,75.675 346.486,75.594 346.424 C 75.514 346.363,76.014 343.395,76.706 339.829 L 77.963 333.346 87.222 333.240 C 92.315 333.182,101.203 333.096,106.974 333.049 L 117.466 332.963 117.219 334.167 M160.240 362.794 L 199.815 377.074 256.296 370.565 C 343.012 360.571,353.877 359.340,354.043 359.490 C 354.428 359.837,351.230 363.806,349.507 365.121 C 344.699 368.791,344.986 368.736,309.630 372.776 C 292.620 374.720,264.954 377.929,248.148 379.907 C 208.744 384.546,202.736 384.693,190.630 381.315 C 188.120 380.615,117.900 353.949,117.492 353.541 C 117.385 353.434,118.154 350.351,118.733 348.572 C 118.964 347.860,116.770 347.108,160.240 362.794 M112.963 350.514 C 112.963 351.176,110.290 358.908,109.267 361.204 L 108.484 362.963 90.692 362.963 L 72.900 362.963 73.155 360.093 C 73.295 358.514,73.640 355.889,73.921 354.259 C 74.201 352.630,74.434 351.090,74.438 350.839 C 74.443 350.489,76.989 350.357,85.278 350.278 C 91.236 350.220,99.903 350.135,104.537 350.087 C 111.522 350.015,112.963 350.088,112.963 350.514 M105.894 368.056 C 100.375 377.262,93.600 381.860,85.570 381.848 C 80.010 381.840,75.305 376.523,73.533 368.247 L 73.277 367.050 82.842 366.944 C 88.103 366.886,95.629 366.800,99.567 366.753 L 106.727 366.667 105.894 368.056 " stroke="none" fill="#331a42" fill-rule="evenodd"></path><path id="path3" d="M118.352 350.771 C 118.001 352.213,117.770 353.434,117.839 353.485 C 117.907 353.535,133.760 359.617,153.067 367.001 C 204.417 386.640,195.939 385.548,249.444 379.418 C 267.981 377.294,296.155 374.066,312.052 372.245 C 343.655 368.626,344.247 368.519,348.333 365.726 C 350.496 364.248,354.052 360.225,353.598 359.771 C 353.373 359.546,326.578 362.564,244.535 372.056 C 220.853 374.795,200.988 377.037,200.391 377.037 C 199.794 377.037,181.284 370.537,159.259 362.593 C 137.234 354.648,119.163 348.148,119.101 348.148 C 119.040 348.148,118.702 349.328,118.352 350.771 " stroke="none" fill="#dc2327" fill-rule="evenodd"></path><path id="path4" d="M181.393 9.151 C 181.854 9.239,182.521 9.236,182.875 9.143 C 183.229 9.051,182.852 8.978,182.037 8.982 C 181.222 8.986,180.932 9.062,181.393 9.151 M203.611 23.231 C 204.273 23.313,205.356 23.313,206.019 23.231 C 206.681 23.149,206.139 23.082,204.815 23.082 C 203.491 23.082,202.949 23.149,203.611 23.231 M132.014 60.093 L 130.926 61.296 132.130 60.208 C 133.252 59.194,133.504 58.889,133.217 58.889 C 133.154 58.889,132.612 59.431,132.014 60.093 M257.778 62.778 C 258.469 63.491,259.118 64.074,259.219 64.074 C 259.321 64.074,258.839 63.491,258.148 62.778 C 257.457 62.065,256.808 61.481,256.707 61.481 C 256.605 61.481,257.087 62.065,257.778 62.778 M108.519 77.523 C 108.519 77.587,109.060 78.129,109.722 78.727 L 110.926 79.815 109.838 78.611 C 108.824 77.489,108.519 77.237,108.519 77.523 M76.276 85.093 L 75.000 86.481 76.389 85.205 C 77.682 84.017,77.948 83.704,77.665 83.704 C 77.603 83.704,76.978 84.329,76.276 85.093 M67.130 108.704 C 67.135 109.519,67.210 109.808,67.299 109.348 C 67.388 108.887,67.384 108.220,67.292 107.866 C 67.199 107.512,67.126 107.889,67.130 108.704 M67.130 112.037 C 67.135 112.852,67.210 113.142,67.299 112.681 C 67.388 112.220,67.384 111.553,67.292 111.199 C 67.199 110.845,67.126 111.222,67.130 112.037 M82.504 134.706 C 82.965 134.795,83.632 134.792,83.986 134.699 C 84.340 134.606,83.963 134.534,83.148 134.538 C 82.333 134.542,82.044 134.618,82.504 134.706 M110.162 137.500 L 109.074 138.704 110.278 137.616 C 110.940 137.018,111.481 136.476,111.481 136.412 C 111.481 136.126,111.176 136.378,110.162 137.500 M91.944 145.811 C 92.301 145.904,92.884 145.904,93.241 145.811 C 93.597 145.718,93.306 145.641,92.593 145.641 C 91.880 145.641,91.588 145.718,91.944 145.811 M113.519 180.000 C 115.139 181.630,116.547 182.963,116.649 182.963 C 116.751 182.963,115.509 181.630,113.889 180.000 C 112.269 178.370,110.860 177.037,110.758 177.037 C 110.656 177.037,111.898 178.370,113.519 180.000 M110.370 183.889 C 111.683 185.213,112.840 186.296,112.942 186.296 C 113.043 186.296,112.053 185.213,110.741 183.889 C 109.428 182.565,108.271 181.481,108.170 181.481 C 108.068 181.481,109.058 182.565,110.370 183.889 M194.907 208.774 C 195.264 208.867,195.847 208.867,196.204 208.774 C 196.560 208.681,196.269 208.604,195.556 208.604 C 194.843 208.604,194.551 208.681,194.907 208.774 M183.796 214.717 C 184.764 214.793,186.347 214.793,187.315 214.717 C 188.282 214.640,187.491 214.578,185.556 214.578 C 183.620 214.578,182.829 214.640,183.796 214.717 M84.926 220.741 C 84.926 221.861,84.995 222.319,85.080 221.759 C 85.165 221.199,85.165 220.282,85.080 219.722 C 84.995 219.162,84.926 219.620,84.926 220.741 M155.741 247.037 C 157.361 248.667,158.770 250.000,158.872 250.000 C 158.973 250.000,157.731 248.667,156.111 247.037 C 154.491 245.407,153.082 244.074,152.980 244.074 C 152.878 244.074,154.121 245.407,155.741 247.037 M376.944 245.817 C 377.403 245.905,378.153 245.905,378.611 245.817 C 379.069 245.729,378.694 245.656,377.778 245.656 C 376.861 245.656,376.486 245.729,376.944 245.817 M186.389 264.329 C 186.745 264.423,187.329 264.423,187.685 264.329 C 188.042 264.236,187.750 264.160,187.037 264.160 C 186.324 264.160,186.032 264.236,186.389 264.329 M7.143 270.926 C 7.146 271.944,7.218 272.317,7.303 271.754 C 7.388 271.191,7.386 270.358,7.298 269.902 C 7.210 269.447,7.140 269.907,7.143 270.926 M91.396 289.528 C 92.061 289.610,93.061 289.608,93.618 289.524 C 94.174 289.439,93.630 289.372,92.407 289.374 C 91.185 289.376,90.730 289.445,91.396 289.528 M120.000 293.889 C 120.691 294.602,121.340 295.185,121.442 295.185 C 121.543 295.185,121.061 294.602,120.370 293.889 C 119.679 293.176,119.031 292.593,118.929 292.593 C 118.827 292.593,119.309 293.176,120.000 293.889 M296.715 293.704 C 296.652 294.641,297.183 295.183,297.788 294.801 C 298.251 294.508,298.240 294.455,297.712 294.450 C 297.371 294.447,297.015 294.153,296.922 293.796 C 296.802 293.337,296.742 293.310,296.715 293.704 M288.669 298.945 C 288.512 299.200,288.566 299.274,288.802 299.128 C 289.021 298.993,289.463 299.146,289.785 299.467 C 290.107 299.789,290.370 299.880,290.370 299.669 C 290.370 299.037,288.978 298.444,288.669 298.945 M291.278 301.446 C 291.084 301.629,290.593 301.860,290.185 301.958 C 289.483 302.127,289.485 302.139,290.232 302.179 C 290.666 302.203,291.228 301.972,291.481 301.667 C 291.984 301.061,291.843 300.908,291.278 301.446 M208.234 303.704 C 208.234 304.417,208.310 304.708,208.403 304.352 C 208.497 303.995,208.497 303.412,208.403 303.056 C 208.310 302.699,208.234 302.991,208.234 303.704 M289.877 303.951 C 289.410 304.417,289.630 305.185,290.231 305.185 C 290.691 305.185,290.735 305.069,290.419 304.688 C 290.192 304.415,290.116 304.081,290.250 303.947 C 290.384 303.813,290.410 303.704,290.309 303.704 C 290.207 303.704,290.012 303.815,289.877 303.951 M208.254 307.963 C 208.257 308.981,208.329 309.354,208.414 308.791 C 208.499 308.228,208.497 307.395,208.409 306.939 C 208.321 306.484,208.251 306.944,208.254 307.963 M31.938 311.852 C 31.938 312.565,32.014 312.856,32.107 312.500 C 32.200 312.144,32.200 311.560,32.107 311.204 C 32.014 310.847,31.938 311.139,31.938 311.852 M115.278 310.996 C 115.634 311.089,116.218 311.089,116.574 310.996 C 116.931 310.903,116.639 310.827,115.926 310.827 C 115.213 310.827,114.921 310.903,115.278 310.996 M87.522 315.092 C 90.131 315.155,94.297 315.155,96.781 315.091 C 99.264 315.027,97.130 314.975,92.037 314.975 C 86.944 314.976,84.912 315.028,87.522 315.092 M119.360 316.296 C 119.360 317.213,119.432 317.588,119.521 317.130 C 119.609 316.671,119.609 315.921,119.521 315.463 C 119.432 315.005,119.360 315.380,119.360 316.296 M81.592 329.535 C 83.385 329.603,86.218 329.603,87.889 329.535 C 89.559 329.466,88.093 329.410,84.630 329.411 C 81.167 329.411,79.800 329.467,81.592 329.535 M101.204 333.240 C 103.597 333.304,107.514 333.304,109.907 333.240 C 112.301 333.175,110.343 333.122,105.556 333.122 C 100.769 333.122,98.810 333.175,101.204 333.240 M76.954 346.568 C 77.825 346.646,79.159 346.645,79.917 346.566 C 80.676 346.486,79.963 346.422,78.333 346.423 C 76.704 346.425,76.083 346.490,76.954 346.568 M100.297 350.276 C 102.396 350.343,105.730 350.342,107.705 350.276 C 109.680 350.209,107.963 350.155,103.889 350.156 C 99.815 350.156,98.199 350.210,100.297 350.276 M73.056 361.667 C 73.060 362.481,73.136 362.771,73.225 362.310 C 73.314 361.850,73.310 361.183,73.217 360.829 C 73.125 360.475,73.052 360.852,73.056 361.667 M108.519 362.160 C 108.519 362.455,107.368 362.617,104.907 362.669 L 101.296 362.746 104.782 362.869 C 108.003 362.983,109.451 362.661,108.772 361.981 C 108.632 361.842,108.519 361.923,108.519 362.160 M96.204 366.943 C 98.088 367.010,101.171 367.010,103.056 366.943 C 104.940 366.875,103.398 366.820,99.630 366.820 C 95.861 366.820,94.319 366.875,96.204 366.943 M99.989 375.463 L 97.593 377.963 100.093 375.566 C 102.415 373.340,102.762 372.963,102.489 372.963 C 102.432 372.963,101.307 374.088,99.989 375.463 M77.778 377.894 C 77.778 377.957,78.319 378.499,78.981 379.097 L 80.185 380.185 79.097 378.981 C 78.083 377.859,77.778 377.608,77.778 377.894 " stroke="none" fill="#7d7289" fill-rule="evenodd"></path><path id="path5" d="M174.456 251.693 C 174.443 254.696,175.698 257.727,177.494 259.030 C 178.760 259.950,179.110 259.649,178.391 258.259 C 178.087 257.672,177.645 256.115,177.409 254.799 C 177.136 253.274,176.673 252.072,176.132 251.481 C 175.666 250.972,175.100 250.222,174.876 249.815 C 174.546 249.217,174.465 249.579,174.456 251.693 M180.969 251.258 C 180.853 251.718,180.914 253.050,181.105 254.219 C 182.529 262.969,192.171 262.175,193.230 253.221 L 193.458 251.296 192.109 252.480 C 189.010 255.200,185.119 254.909,182.345 251.750 C 181.219 250.467,181.171 250.450,180.969 251.258 M295.185 290.670 C 295.185 290.869,295.449 291.133,295.772 291.257 C 296.132 291.395,296.302 291.313,296.212 291.042 C 296.027 290.488,295.185 290.183,295.185 290.670 M311.042 312.781 C 311.514 313.126,312.000 313.309,312.123 313.186 C 312.419 312.889,312.217 312.736,311.111 312.419 L 310.185 312.154 311.042 312.781 M309.340 320.362 C 309.597 320.774,309.934 321.111,310.089 321.111 C 310.624 321.111,310.368 320.547,309.621 320.081 C 308.926 319.647,308.906 319.667,309.340 320.362 " stroke="none" fill="#3a78b2" fill-rule="evenodd"></path><path id="path6" d="M298.769 295.429 C 298.318 295.557,298.173 295.825,298.332 296.236 C 299.938 300.387,295.031 304.015,292.766 300.351 C 292.167 299.381,290.947 302.773,290.962 305.370 C 291.025 316.414,305.620 319.768,310.364 309.829 C 313.966 302.280,306.652 293.197,298.769 295.429 " stroke="none" fill="#040404" fill-rule="evenodd"></path><path id="path7" d="M333.796 369.885 C 334.153 369.978,334.736 369.978,335.093 369.885 C 335.449 369.792,335.157 369.716,334.444 369.716 C 333.731 369.716,333.440 369.792,333.796 369.885 M330.463 370.255 C 330.819 370.348,331.403 370.348,331.759 370.255 C 332.116 370.162,331.824 370.086,331.111 370.086 C 330.398 370.086,330.106 370.162,330.463 370.255 M324.167 370.996 C 324.523 371.089,325.106 371.089,325.463 370.996 C 325.819 370.903,325.528 370.827,324.815 370.827 C 324.102 370.827,323.810 370.903,324.167 370.996 M320.833 371.366 C 321.190 371.460,321.773 371.460,322.130 371.366 C 322.486 371.273,322.194 371.197,321.481 371.197 C 320.769 371.197,320.477 371.273,320.833 371.366 M317.500 371.737 C 317.856 371.830,318.440 371.830,318.796 371.737 C 319.153 371.644,318.861 371.567,318.148 371.567 C 317.435 371.567,317.144 371.644,317.500 371.737 M311.204 372.478 C 311.560 372.571,312.144 372.571,312.500 372.478 C 312.856 372.384,312.565 372.308,311.852 372.308 C 311.139 372.308,310.847 372.384,311.204 372.478 M307.870 372.848 C 308.227 372.941,308.810 372.941,309.167 372.848 C 309.523 372.755,309.231 372.679,308.519 372.679 C 307.806 372.679,307.514 372.755,307.870 372.848 M304.537 373.218 C 304.894 373.311,305.477 373.311,305.833 373.218 C 306.190 373.125,305.898 373.049,305.185 373.049 C 304.472 373.049,304.181 373.125,304.537 373.218 M301.574 373.589 C 301.931 373.682,302.514 373.682,302.870 373.589 C 303.227 373.495,302.935 373.419,302.222 373.419 C 301.509 373.419,301.218 373.495,301.574 373.589 M298.241 373.959 C 298.597 374.052,299.181 374.052,299.537 373.959 C 299.894 373.866,299.602 373.790,298.889 373.790 C 298.176 373.790,297.884 373.866,298.241 373.959 M294.907 374.329 C 295.264 374.423,295.847 374.423,296.204 374.329 C 296.560 374.236,296.269 374.160,295.556 374.160 C 294.843 374.160,294.551 374.236,294.907 374.329 M288.611 375.070 C 288.968 375.163,289.551 375.163,289.907 375.070 C 290.264 374.977,289.972 374.901,289.259 374.901 C 288.546 374.901,288.255 374.977,288.611 375.070 M285.278 375.440 C 285.634 375.534,286.218 375.534,286.574 375.440 C 286.931 375.347,286.639 375.271,285.926 375.271 C 285.213 375.271,284.921 375.347,285.278 375.440 M281.944 375.811 C 282.301 375.904,282.884 375.904,283.241 375.811 C 283.597 375.718,283.306 375.641,282.593 375.641 C 281.880 375.641,281.588 375.718,281.944 375.811 M278.611 376.181 C 278.968 376.274,279.551 376.274,279.907 376.181 C 280.264 376.088,279.972 376.012,279.259 376.012 C 278.546 376.012,278.255 376.088,278.611 376.181 M272.315 376.922 C 272.671 377.015,273.255 377.015,273.611 376.922 C 273.968 376.829,273.676 376.753,272.963 376.753 C 272.250 376.753,271.958 376.829,272.315 376.922 M268.981 377.292 C 269.338 377.386,269.921 377.386,270.278 377.292 C 270.634 377.199,270.343 377.123,269.630 377.123 C 268.917 377.123,268.625 377.199,268.981 377.292 M262.685 378.033 C 263.042 378.126,263.625 378.126,263.981 378.033 C 264.338 377.940,264.046 377.864,263.333 377.864 C 262.620 377.864,262.329 377.940,262.685 378.033 M259.352 378.403 C 259.708 378.497,260.292 378.497,260.648 378.403 C 261.005 378.310,260.713 378.234,260.000 378.234 C 259.287 378.234,258.995 378.310,259.352 378.403 M253.056 379.144 C 253.412 379.237,253.995 379.237,254.352 379.144 C 254.708 379.051,254.417 378.975,253.704 378.975 C 252.991 378.975,252.699 379.051,253.056 379.144 M249.722 379.515 C 250.079 379.608,250.662 379.608,251.019 379.515 C 251.375 379.421,251.083 379.345,250.370 379.345 C 249.657 379.345,249.366 379.421,249.722 379.515 M246.759 379.885 C 247.116 379.978,247.699 379.978,248.056 379.885 C 248.412 379.792,248.120 379.716,247.407 379.716 C 246.694 379.716,246.403 379.792,246.759 379.885 M243.426 380.255 C 243.782 380.348,244.366 380.348,244.722 380.255 C 245.079 380.162,244.787 380.086,244.074 380.086 C 243.361 380.086,243.069 380.162,243.426 380.255 M237.130 380.996 C 237.486 381.089,238.069 381.089,238.426 380.996 C 238.782 380.903,238.491 380.827,237.778 380.827 C 237.065 380.827,236.773 380.903,237.130 380.996 M233.796 381.366 C 234.153 381.460,234.736 381.460,235.093 381.366 C 235.449 381.273,235.157 381.197,234.444 381.197 C 233.731 381.197,233.440 381.273,233.796 381.366 M227.500 382.107 C 227.856 382.200,228.440 382.200,228.796 382.107 C 229.153 382.014,228.861 381.938,228.148 381.938 C 227.435 381.938,227.144 382.014,227.500 382.107 M224.167 382.478 C 224.523 382.571,225.106 382.571,225.463 382.478 C 225.819 382.384,225.528 382.308,224.815 382.308 C 224.102 382.308,223.810 382.384,224.167 382.478 M200.282 383.225 C 200.743 383.314,201.409 383.310,201.764 383.217 C 202.118 383.125,201.741 383.052,200.926 383.056 C 200.111 383.060,199.821 383.136,200.282 383.225 M217.870 383.218 C 218.227 383.311,218.810 383.311,219.167 383.218 C 219.523 383.125,219.231 383.049,218.519 383.049 C 217.806 383.049,217.514 383.125,217.870 383.218 M203.981 383.595 C 204.440 383.683,205.190 383.683,205.648 383.595 C 206.106 383.506,205.731 383.434,204.815 383.434 C 203.898 383.434,203.523 383.506,203.981 383.595 M211.944 383.603 C 212.708 383.683,213.958 383.683,214.722 383.603 C 215.486 383.523,214.861 383.458,213.333 383.458 C 211.806 383.458,211.181 383.523,211.944 383.603 " stroke="none" fill="#7e213c" fill-rule="evenodd"></path><path id="path8" d="M184.732 9.161 C 185.603 9.239,186.936 9.238,187.695 9.158 C 188.453 9.079,187.741 9.015,186.111 9.016 C 184.481 9.017,183.861 9.082,184.732 9.161 M196.949 18.410 C 197.409 18.499,198.076 18.495,198.430 18.403 C 198.784 18.310,198.407 18.237,197.593 18.242 C 196.778 18.246,196.488 18.322,196.949 18.410 M201.772 28.792 C 202.848 28.867,204.515 28.866,205.475 28.790 C 206.436 28.714,205.556 28.653,203.519 28.654 C 201.481 28.655,200.695 28.717,201.772 28.792 M205.846 44.348 C 206.922 44.423,208.589 44.422,209.549 44.346 C 210.510 44.270,209.630 44.208,207.593 44.209 C 205.556 44.210,204.769 44.273,205.846 44.348 M130.544 53.796 L 128.333 56.111 130.648 53.900 C 132.798 51.847,133.132 51.481,132.859 51.481 C 132.801 51.481,131.760 52.523,130.544 53.796 M97.638 59.961 C 96.013 62.777,93.961 67.069,94.162 67.228 C 94.215 67.270,95.259 67.388,96.481 67.490 C 97.704 67.591,98.412 67.602,98.056 67.514 C 97.305 67.328,97.376 66.565,98.696 60.648 C 99.139 58.662,99.461 57.037,99.413 57.037 C 99.364 57.037,98.565 58.353,97.638 59.961 M256.111 61.481 C 256.907 62.296,257.641 62.963,257.743 62.963 C 257.845 62.963,257.277 62.296,256.481 61.481 C 255.686 60.667,254.952 60.000,254.850 60.000 C 254.748 60.000,255.315 60.667,256.111 61.481 M258.889 64.190 C 258.889 64.254,259.431 64.795,260.093 65.394 L 261.296 66.481 260.208 65.278 C 259.194 64.156,258.889 63.904,258.889 64.190 M245.741 76.667 C 247.361 78.296,248.770 79.630,248.872 79.630 C 248.973 79.630,247.731 78.296,246.111 76.667 C 244.491 75.037,243.082 73.704,242.980 73.704 C 242.878 73.704,244.121 75.037,245.741 76.667 M266.698 75.000 C 266.698 75.204,267.017 75.954,267.407 76.667 C 267.798 77.380,268.117 77.796,268.117 77.593 C 268.117 77.389,267.798 76.639,267.407 75.926 C 267.017 75.213,266.698 74.796,266.698 75.000 M249.630 80.857 C 249.630 80.920,250.171 81.462,250.833 82.060 L 252.037 83.148 250.949 81.944 C 249.935 80.822,249.630 80.570,249.630 80.857 M161.197 85.556 C 161.197 86.269,161.273 86.560,161.366 86.204 C 161.460 85.847,161.460 85.264,161.366 84.907 C 161.273 84.551,161.197 84.843,161.197 85.556 M256.924 91.292 C 257.263 92.002,257.606 92.518,257.686 92.437 C 257.856 92.268,256.731 90.000,256.478 90.000 C 256.385 90.000,256.585 90.581,256.924 91.292 M68.974 98.558 C 62.081 122.311,77.044 143.232,92.101 130.893 C 95.915 127.768,101.852 117.162,101.852 113.473 C 101.852 113.383,100.969 113.976,99.891 114.790 C 88.608 123.308,73.639 115.008,70.284 98.373 L 69.769 95.820 68.974 98.558 M118.234 101.481 C 118.234 102.194,118.310 102.486,118.403 102.130 C 118.497 101.773,118.497 101.190,118.403 100.833 C 118.310 100.477,118.234 100.769,118.234 101.481 M102.686 102.407 C 102.690 103.222,102.766 103.512,102.855 103.051 C 102.943 102.591,102.940 101.924,102.847 101.570 C 102.754 101.216,102.682 101.593,102.686 102.407 M118.242 105.741 C 118.246 106.556,118.322 106.845,118.410 106.385 C 118.499 105.924,118.495 105.257,118.403 104.903 C 118.310 104.549,118.237 104.926,118.242 105.741 M102.686 106.111 C 102.690 106.926,102.766 107.216,102.855 106.755 C 102.943 106.294,102.940 105.628,102.847 105.273 C 102.754 104.919,102.682 105.296,102.686 106.111 M275.327 112.778 C 275.327 115.222,275.387 116.174,275.460 114.893 C 275.532 113.612,275.532 111.612,275.458 110.448 C 275.385 109.285,275.326 110.333,275.327 112.778 M261.627 114.815 C 261.627 117.565,261.685 118.690,261.756 117.315 C 261.827 115.940,261.827 113.690,261.756 112.315 C 261.685 110.940,261.627 112.065,261.627 114.815 M133.441 111.574 C 129.801 115.555,131.929 122.842,136.403 121.719 L 137.329 121.487 135.471 116.784 C 133.968 112.976,133.694 111.953,134.032 111.411 C 134.600 110.502,134.361 110.568,133.441 111.574 M114.815 115.308 C 113.477 115.951,112.472 116.109,109.722 116.110 C 107.125 116.111,106.296 116.230,106.296 116.602 C 106.296 117.975,102.999 125.265,101.084 128.130 C 97.364 133.690,91.548 138.287,87.200 139.103 C 85.371 139.446,85.927 139.867,88.911 140.400 C 99.668 142.322,111.055 133.115,115.935 118.552 C 117.483 113.930,117.511 114.012,114.815 115.308 M109.402 138.303 L 107.138 140.556 107.967 143.333 C 119.072 180.538,155.924 207.959,195.630 208.561 C 201.945 208.657,212.007 206.271,222.358 202.224 C 227.278 200.301,227.223 200.228,221.667 201.322 C 172.470 211.015,125.248 184.689,113.332 140.926 C 112.889 139.296,112.368 137.665,112.176 137.300 C 111.984 136.935,111.926 136.477,112.046 136.281 C 112.604 135.379,111.468 136.247,109.402 138.303 M99.662 144.304 C 98.355 144.808,95.999 145.402,94.426 145.625 L 91.566 146.029 92.647 148.651 C 103.526 175.032,128.585 197.432,156.087 205.358 C 160.227 206.551,160.783 206.424,157.513 205.033 C 132.626 194.440,112.388 172.959,104.274 148.522 C 102.369 142.785,102.734 143.119,99.662 144.304 M261.282 147.870 L 259.444 149.815 261.389 147.977 C 263.196 146.269,263.503 145.926,263.227 145.926 C 263.168 145.926,262.293 146.801,261.282 147.870 M73.426 170.996 C 73.782 171.089,74.366 171.089,74.722 170.996 C 75.079 170.903,74.787 170.827,74.074 170.827 C 73.361 170.827,73.069 170.903,73.426 170.996 M102.407 181.802 C 100.778 183.388,99.587 184.564,99.761 184.415 C 99.935 184.266,101.092 185.324,102.332 186.764 C 111.295 197.178,124.097 207.572,126.426 206.326 C 127.604 205.695,128.039 205.999,128.521 207.786 C 129.186 210.257,147.143 218.339,155.275 219.828 C 156.037 219.967,156.564 220.236,156.447 220.426 C 156.323 220.626,156.635 220.670,157.191 220.530 C 157.785 220.381,158.148 220.444,158.148 220.696 C 158.148 220.920,158.523 221.092,158.981 221.078 C 159.440 221.065,160.460 221.221,161.249 221.424 C 162.037 221.628,162.895 221.712,163.156 221.613 C 163.416 221.513,163.739 221.610,163.874 221.828 C 164.009 222.046,164.526 222.123,165.023 221.998 C 165.535 221.870,165.926 221.934,165.926 222.147 C 165.926 222.370,166.566 222.449,167.500 222.343 C 168.381 222.242,168.887 222.299,168.648 222.470 C 168.414 222.640,172.695 222.838,178.161 222.911 L 188.099 223.045 188.294 221.800 C 188.401 221.116,188.590 219.295,188.714 217.754 L 188.939 214.952 180.858 214.523 C 152.559 213.018,128.904 202.559,109.761 183.087 C 107.491 180.778,105.574 178.895,105.502 178.903 C 105.430 178.912,104.037 180.216,102.407 181.802 M70.556 188.148 C 71.559 189.167,72.463 190.000,72.565 190.000 C 72.667 190.000,71.929 189.167,70.926 188.148 C 69.923 187.130,69.019 186.296,68.917 186.296 C 68.815 186.296,69.552 187.130,70.556 188.148 M70.000 191.968 C 70.000 192.031,70.542 192.573,71.204 193.171 L 72.407 194.259 71.320 193.056 C 70.306 191.934,70.000 191.682,70.000 191.968 M80.372 195.222 C 73.320 196.603,64.645 204.484,54.731 218.519 L 53.030 220.926 55.867 220.926 C 57.427 220.926,59.120 221.041,59.630 221.181 C 60.449 221.406,60.748 221.170,62.222 219.144 C 65.061 215.241,71.048 207.820,75.530 202.650 C 81.210 196.097,82.307 194.807,82.160 194.855 C 82.093 194.878,81.288 195.043,80.372 195.222 M196.300 214.042 L 194.266 214.259 194.023 216.111 C 193.889 217.130,193.698 218.973,193.598 220.206 L 193.417 222.450 195.690 221.972 C 196.940 221.709,198.644 221.449,199.477 221.395 L 200.992 221.296 200.516 219.488 C 200.255 218.493,199.929 216.784,199.793 215.691 C 199.601 214.161,199.405 213.718,198.939 213.764 C 198.606 213.797,197.418 213.922,196.300 214.042 M84.901 223.704 C 84.901 224.417,84.977 224.708,85.070 224.352 C 85.163 223.995,85.163 223.412,85.070 223.056 C 84.977 222.699,84.901 222.991,84.901 223.704 M48.974 229.598 C 45.868 233.818,45.905 240.922,49.060 245.908 C 53.652 253.164,65.720 258.935,83.148 262.208 C 86.947 262.922,94.902 264.063,95.078 263.919 C 95.784 263.345,92.226 256.650,91.111 256.454 C 65.396 251.933,51.605 243.156,50.421 230.556 L 50.177 227.963 48.974 229.598 M191.402 239.630 C 191.313 240.241,191.377 240.741,191.546 240.741 C 191.714 240.741,191.852 240.241,191.852 239.630 C 191.852 239.019,191.787 238.519,191.709 238.519 C 191.630 238.519,191.492 239.019,191.402 239.630 M41.305 245.061 C 35.410 267.195,24.052 276.375,9.974 270.385 L 7.407 269.292 7.414 272.331 C 7.435 282.097,12.566 288.749,25.465 295.733 C 27.817 297.006,27.515 297.424,28.267 291.852 C 29.915 279.631,33.442 268.902,40.544 254.507 C 42.453 250.637,43.927 247.384,43.821 247.278 C 43.715 247.171,43.257 246.060,42.803 244.807 L 41.979 242.530 41.305 245.061 M2.026 249.438 C 1.439 255.696,3.286 259.950,8.135 263.509 C 10.304 265.101,10.667 265.112,13.704 263.676 C 16.736 262.242,19.571 260.068,21.580 257.633 C 22.439 256.592,22.884 255.943,22.568 256.190 C 20.701 257.651,14.673 258.187,11.640 257.160 C 9.021 256.274,5.333 252.482,3.876 249.177 C 2.489 246.032,2.343 246.052,2.026 249.438 M217.963 250.741 C 218.966 251.759,219.870 252.593,219.972 252.593 C 220.074 252.593,219.337 251.759,218.333 250.741 C 217.330 249.722,216.426 248.889,216.324 248.889 C 216.222 248.889,216.960 249.722,217.963 250.741 M197.066 251.759 C 197.098 253.696,197.278 253.539,197.491 251.389 C 197.567 250.625,197.496 250.000,197.333 250.000 C 197.170 250.000,197.050 250.792,197.066 251.759 M47.146 252.667 C 46.635 253.311,45.752 255.069,46.103 254.742 C 46.256 254.600,47.120 255.467,48.024 256.669 C 52.123 262.122,61.172 267.184,72.222 270.206 C 74.157 270.735,76.574 271.413,77.593 271.713 C 78.611 272.013,79.944 272.323,80.556 272.400 C 81.167 272.478,81.750 272.572,81.852 272.610 C 81.954 272.647,82.347 272.645,82.726 272.605 C 83.104 272.565,83.329 272.671,83.224 272.840 C 83.119 273.010,83.643 273.156,84.387 273.167 C 85.132 273.177,88.074 273.477,90.926 273.833 C 93.778 274.189,97.113 274.604,98.337 274.755 L 100.563 275.029 99.115 272.237 C 98.319 270.701,97.648 269.414,97.624 269.377 C 97.600 269.340,95.750 269.123,93.513 268.896 C 73.631 266.877,56.973 261.156,49.042 253.624 C 47.858 252.500,47.445 252.291,47.146 252.667 M201.111 256.542 C 201.111 257.412,200.253 257.923,197.222 258.858 L 195.000 259.544 194.891 262.210 C 194.767 265.208,194.939 265.294,197.710 263.616 C 199.748 262.381,202.314 257.005,201.332 256.024 C 201.211 255.902,201.111 256.135,201.111 256.542 M24.275 259.145 C 23.109 260.987,19.764 264.541,17.778 266.046 L 16.481 267.029 18.545 267.033 C 22.562 267.041,25.880 265.076,28.849 260.931 C 29.901 259.463,29.973 259.248,29.294 259.611 C 27.929 260.341,26.550 259.952,25.901 258.653 L 25.321 257.492 24.275 259.145 M99.259 259.780 C 99.259 259.863,100.012 261.727,100.931 263.922 C 109.630 284.683,124.428 301.396,141.481 309.716 C 145.765 311.806,151.750 314.084,152.900 314.062 C 154.090 314.040,151.638 312.342,150.049 312.088 C 147.255 311.641,146.592 308.722,149.069 307.780 C 152.482 306.482,156.264 309.434,160.218 316.481 C 169.014 332.162,175.215 336.792,185.724 335.528 C 202.245 333.539,209.692 322.172,208.078 301.407 C 207.602 295.277,207.247 293.965,206.896 297.037 C 205.233 311.576,197.632 320.072,184.139 322.470 C 172.128 324.604,163.456 319.264,155.601 304.893 L 154.248 302.417 151.180 301.781 C 131.809 297.764,110.235 280.583,100.540 261.451 C 99.742 259.876,99.259 259.246,99.259 259.780 M172.816 260.588 C 171.579 263.813,172.740 264.723,182.593 268.248 C 189.093 270.573,189.092 270.573,189.562 269.348 C 189.847 268.605,190.406 263.704,190.206 263.704 C 190.192 263.704,189.603 263.869,188.897 264.072 C 187.532 264.463,180.234 263.967,177.737 263.313 C 177.002 263.120,175.644 262.297,174.720 261.484 C 173.366 260.292,172.997 260.118,172.816 260.588 M72.870 276.928 C 73.329 277.016,74.079 277.016,74.537 276.928 C 74.995 276.840,74.620 276.768,73.704 276.768 C 72.787 276.768,72.412 276.840,72.870 276.928 M54.236 281.204 L 53.148 282.407 54.352 281.320 C 55.474 280.306,55.726 280.000,55.440 280.000 C 55.376 280.000,54.834 280.542,54.236 281.204 M209.614 285.250 C 211.745 290.074,213.333 298.468,213.333 304.910 L 213.333 308.799 214.456 309.264 C 215.890 309.858,215.451 310.876,218.532 299.815 C 220.008 294.519,221.282 290.005,221.364 289.785 C 221.445 289.566,220.836 289.183,220.010 288.936 C 219.184 288.688,216.468 287.451,213.976 286.187 C 211.484 284.923,209.323 283.835,209.175 283.768 C 209.027 283.702,209.224 284.369,209.614 285.250 M300.444 290.444 C 299.648 291.241,299.903 292.138,300.874 291.953 C 301.444 291.843,301.826 291.990,301.973 292.374 C 302.143 292.818,301.965 292.963,301.251 292.963 C 300.722 292.963,299.997 293.330,299.609 293.796 C 299.026 294.495,298.912 294.527,298.901 293.995 C 298.894 293.645,298.567 293.187,298.172 292.976 C 297.034 292.367,296.589 292.504,296.867 293.380 C 297.023 293.873,296.929 294.287,296.614 294.490 C 296.304 294.690,296.572 294.725,297.314 294.583 C 298.069 294.438,298.732 294.531,299.094 294.831 C 299.572 295.228,299.652 295.220,299.558 294.785 C 299.496 294.496,299.665 294.305,299.935 294.361 C 300.205 294.417,300.320 294.292,300.191 294.083 C 300.062 293.874,300.206 293.704,300.512 293.704 C 300.817 293.704,301.170 293.870,301.296 294.074 C 301.422 294.278,301.692 294.444,301.896 294.444 C 302.099 294.444,302.172 294.292,302.057 294.106 C 301.941 293.919,302.057 293.696,302.313 293.610 C 302.847 293.430,302.946 291.418,302.438 291.051 C 302.252 290.916,301.710 290.954,301.235 291.135 C 300.214 291.523,300.104 291.209,301.019 290.516 C 301.375 290.245,301.492 290.018,301.278 290.012 C 301.064 290.005,300.689 290.200,300.444 290.444 M306.944 292.767 C 306.477 293.409,306.415 293.734,306.723 293.924 C 306.989 294.088,307.051 294.026,306.887 293.761 C 306.742 293.526,306.788 293.333,306.990 293.333 C 307.536 293.333,307.373 295.538,306.804 295.856 C 306.436 296.062,306.574 296.376,307.359 297.116 L 308.403 298.102 308.248 296.556 C 308.163 295.706,307.898 294.885,307.658 294.733 C 307.370 294.550,307.441 294.454,307.870 294.450 C 308.270 294.447,308.519 294.160,308.519 293.704 C 308.519 293.296,308.274 292.963,307.975 292.963 C 307.643 292.963,307.514 292.746,307.644 292.407 C 307.951 291.608,307.690 291.742,306.944 292.767 M289.868 293.398 C 290.305 293.609,290.835 294.139,291.047 294.576 C 291.346 295.194,291.437 295.233,291.456 294.749 C 291.470 294.407,291.220 293.865,290.899 293.545 C 290.579 293.225,290.038 292.974,289.696 292.988 C 289.212 293.008,289.250 293.098,289.868 293.398 M298.519 293.704 C 298.519 293.907,298.269 294.074,297.963 294.074 C 297.657 294.074,297.407 293.907,297.407 293.704 C 297.407 293.500,297.657 293.333,297.963 293.333 C 298.269 293.333,298.519 293.500,298.519 293.704 M304.082 294.043 C 304.252 294.366,304.481 294.921,304.591 295.278 C 304.701 295.634,305.042 295.926,305.347 295.926 C 305.689 295.926,305.821 295.712,305.689 295.370 C 305.572 295.065,305.296 294.815,305.075 294.815 C 304.854 294.815,304.997 294.564,305.392 294.258 C 305.991 293.794,306.003 293.739,305.463 293.928 C 305.106 294.052,304.815 293.997,304.815 293.805 C 304.815 293.614,304.581 293.457,304.295 293.457 C 303.937 293.457,303.871 293.640,304.082 294.043 M292.693 294.275 C 292.324 294.673,292.378 294.757,292.970 294.712 C 293.708 294.657,293.943 294.263,293.426 293.950 C 293.273 293.857,292.943 294.003,292.693 294.275 M89.912 294.336 C 90.372 294.425,91.039 294.421,91.393 294.329 C 91.747 294.236,91.370 294.163,90.556 294.167 C 89.741 294.172,89.451 294.247,89.912 294.336 M291.584 296.289 C 291.539 296.881,291.623 296.935,292.022 296.567 C 292.293 296.316,292.439 295.986,292.347 295.833 C 292.034 295.316,291.639 295.552,291.584 296.289 M310.891 296.350 C 310.190 297.139,310.191 297.142,310.998 296.719 C 311.898 296.246,312.452 295.556,311.931 295.556 C 311.747 295.556,311.279 295.913,310.891 296.350 M312.215 296.861 C 311.499 297.723,312.010 297.886,312.776 297.039 C 313.146 296.631,313.276 296.296,313.066 296.296 C 312.855 296.296,312.472 296.550,312.215 296.861 M288.745 297.952 C 288.189 298.800,288.191 298.849,288.763 298.630 C 289.212 298.457,289.298 298.527,289.078 298.883 C 288.863 299.230,288.916 299.286,289.258 299.075 C 289.563 298.886,289.945 299.036,290.291 299.480 C 290.755 300.075,290.806 300.085,290.619 299.543 C 290.481 299.142,290.641 298.770,291.046 298.554 C 291.558 298.280,291.693 298.356,291.693 298.918 C 291.693 299.310,291.578 299.630,291.437 299.630 C 291.296 299.630,291.263 300.005,291.363 300.463 C 291.506 301.116,291.463 301.178,291.163 300.751 C 290.833 300.281,290.747 300.294,290.536 300.844 C 290.401 301.194,290.122 301.481,289.915 301.481 C 289.688 301.481,289.710 301.275,289.973 300.959 C 290.232 300.646,290.266 300.350,290.057 300.220 C 289.865 300.101,289.613 300.250,289.497 300.551 C 289.369 300.886,289.046 301.006,288.667 300.861 C 288.235 300.695,288.102 300.781,288.229 301.145 C 288.328 301.432,288.701 301.614,289.057 301.549 C 289.453 301.477,289.606 301.590,289.452 301.840 C 289.292 302.098,289.655 302.063,290.433 301.747 C 291.233 301.422,291.710 300.951,291.789 300.409 C 291.877 299.801,292.080 299.637,292.529 299.808 C 293.025 299.997,293.056 299.951,292.685 299.577 C 292.431 299.321,292.222 298.811,292.222 298.444 C 292.222 297.736,291.310 297.527,290.926 298.148 C 290.660 298.579,289.979 298.650,290.044 298.241 C 290.266 296.831,289.580 296.678,288.745 297.952 M309.021 297.968 C 308.623 299.004,309.620 299.754,310.426 299.024 C 311.241 298.286,311.021 297.825,310.185 298.519 C 309.445 299.133,309.010 298.710,309.622 297.972 C 309.956 297.569,309.968 297.407,309.663 297.407 C 309.428 297.407,309.139 297.660,309.021 297.968 M312.217 298.536 C 311.710 298.925,311.463 299.241,311.667 299.239 C 312.157 299.235,313.510 298.202,313.301 297.992 C 313.211 297.902,312.723 298.147,312.217 298.536 M310.553 300.229 C 310.625 300.612,310.697 301.051,310.712 301.204 C 310.728 301.356,310.917 301.481,311.133 301.481 C 311.349 301.481,311.414 301.302,311.278 301.082 C 311.116 300.819,311.453 300.724,312.264 300.804 C 313.201 300.897,313.528 300.771,313.627 300.278 C 313.699 299.921,313.584 299.630,313.372 299.630 C 313.160 299.630,313.093 299.921,313.223 300.278 C 313.448 300.895,313.424 300.895,312.719 300.278 C 312.312 299.921,311.825 299.632,311.638 299.635 C 311.450 299.638,311.546 299.803,311.852 300.000 C 312.341 300.316,312.339 300.360,311.833 300.365 C 311.518 300.368,311.071 300.182,310.840 299.952 C 310.529 299.640,310.455 299.711,310.553 300.229 M313.975 302.222 C 313.626 302.630,313.079 302.963,312.760 302.963 C 312.440 302.963,312.280 303.128,312.405 303.329 C 312.534 303.539,312.386 303.601,312.058 303.475 C 311.743 303.355,311.557 303.140,311.644 302.999 C 311.732 302.858,311.650 302.500,311.463 302.205 C 311.192 301.776,311.121 301.822,311.117 302.429 C 311.109 303.417,311.822 304.306,312.870 304.617 C 313.543 304.817,313.704 304.719,313.704 304.111 C 313.704 303.589,313.877 303.423,314.266 303.572 C 314.575 303.691,314.805 303.977,314.777 304.209 C 314.639 305.365,314.811 305.612,315.369 305.055 C 316.086 304.338,315.967 302.687,315.201 302.739 C 314.872 302.761,314.651 302.503,314.681 302.130 C 314.745 301.323,314.745 301.323,313.975 302.222 M287.500 303.208 C 287.033 303.397,286.834 304.815,287.274 304.815 C 287.404 304.815,287.712 304.539,287.959 304.203 C 288.486 303.482,289.259 303.830,289.259 304.788 C 289.259 305.324,289.017 305.433,288.056 305.331 C 287.231 305.244,287.027 305.307,287.407 305.531 C 288.088 305.932,290.741 305.893,290.741 305.482 C 290.741 305.319,290.491 305.185,290.185 305.185 C 289.510 305.185,289.460 304.405,290.093 303.723 C 290.405 303.387,290.413 303.305,290.118 303.470 C 289.878 303.605,289.576 303.546,289.448 303.339 C 289.206 302.948,288.298 302.886,287.500 303.208 M97.407 304.308 C 92.942 305.161,85.876 308.724,84.621 310.755 C 84.444 311.041,89.111 311.136,100.882 311.085 L 117.392 311.013 116.273 309.601 C 112.655 305.032,104.942 302.868,97.407 304.308 M31.979 307.963 C 31.980 309.593,32.045 310.213,32.124 309.342 C 32.202 308.471,32.201 307.138,32.121 306.379 C 32.041 305.621,31.977 306.333,31.979 307.963 M289.774 306.508 C 289.898 306.832,290.000 307.177,290.000 307.274 C 290.000 307.372,290.167 307.348,290.370 307.222 C 290.920 306.882,290.820 306.406,290.144 306.147 C 289.707 305.979,289.608 306.076,289.774 306.508 M312.778 306.296 C 312.507 306.734,312.869 306.734,313.889 306.296 C 314.603 305.989,314.601 305.977,313.818 305.952 C 313.372 305.938,312.904 306.093,312.778 306.296 M288.947 308.616 L 289.032 309.883 290.069 309.293 C 291.167 308.669,291.506 308.020,290.540 308.390 C 290.185 308.527,290.010 308.426,290.077 308.123 C 290.137 307.855,289.887 307.572,289.523 307.492 C 288.977 307.373,288.877 307.569,288.947 308.616 M312.595 307.870 C 312.594 308.271,312.309 308.519,311.852 308.519 C 311.444 308.519,311.111 308.656,311.111 308.825 C 311.111 308.993,311.647 309.052,312.302 308.956 C 313.403 308.795,313.448 308.827,312.891 309.384 C 312.560 309.716,312.219 310.195,312.134 310.450 C 312.049 310.705,311.493 310.887,310.897 310.856 C 309.921 310.805,309.976 310.874,311.466 311.558 C 312.510 312.038,313.165 312.171,313.249 311.920 C 313.322 311.702,313.662 311.613,314.005 311.722 C 314.454 311.866,314.497 311.826,314.159 311.582 C 313.702 311.253,313.701 309.879,314.156 309.424 C 314.280 309.300,314.770 309.389,315.246 309.620 C 316.075 310.023,316.081 310.017,315.385 309.460 C 314.986 309.140,314.486 308.939,314.274 309.013 C 314.062 309.087,313.598 308.714,313.243 308.185 C 312.747 307.445,312.597 307.372,312.595 307.870 M126.648 308.973 L 124.222 309.327 124.354 314.756 C 124.432 317.989,124.279 321.815,123.976 324.214 L 123.467 328.243 125.715 328.029 C 126.951 327.911,131.963 327.389,136.852 326.869 C 141.741 326.349,148.620 325.697,152.139 325.421 C 159.660 324.831,159.239 325.054,157.767 322.445 C 156.334 319.907,156.688 320.117,152.114 319.080 C 145.750 317.637,138.992 314.665,132.185 310.317 C 130.637 309.328,129.304 308.541,129.222 308.569 C 129.141 308.596,127.982 308.778,126.648 308.973 M291.220 310.166 C 290.774 310.674,291.672 311.415,292.152 310.935 C 292.258 310.828,292.156 310.741,291.925 310.741 C 291.694 310.741,291.601 310.491,291.718 310.185 C 291.980 309.503,291.809 309.496,291.220 310.166 M118.975 311.852 C 118.975 312.565,119.051 312.856,119.144 312.500 C 119.237 312.144,119.237 311.560,119.144 311.204 C 119.051 310.847,118.975 311.139,118.975 311.852 M83.515 311.488 C 83.387 311.695,83.146 311.780,82.979 311.677 C 82.728 311.521,82.090 312.992,82.330 313.176 C 82.372 313.209,82.795 312.758,83.269 312.173 C 83.743 311.589,84.044 311.111,83.939 311.111 C 83.834 311.111,83.643 311.280,83.515 311.488 M290.926 311.852 C 290.655 312.290,291.018 312.290,292.037 311.852 C 292.751 311.545,292.749 311.533,291.966 311.508 C 291.520 311.493,291.052 311.648,290.926 311.852 M311.981 312.794 C 312.216 313.048,312.544 313.173,312.710 313.072 C 312.877 312.971,313.104 313.239,313.216 313.666 C 313.328 314.094,313.573 314.444,313.760 314.444 C 313.964 314.444,313.967 314.185,313.767 313.796 C 313.583 313.440,313.494 312.981,313.568 312.778 C 313.641 312.574,313.219 312.390,312.628 312.370 C 311.789 312.340,311.648 312.433,311.981 312.794 M32.232 314.084 C 32.154 327.111,38.229 341.895,46.372 348.496 C 48.532 350.247,55.185 354.031,55.185 353.508 C 55.185 353.382,54.426 352.105,53.499 350.671 C 51.591 347.722,51.599 347.332,53.542 348.533 C 57.151 350.763,61.141 355.104,63.160 358.994 C 63.923 360.464,64.762 361.917,65.024 362.222 C 65.286 362.528,66.096 363.768,66.824 364.978 L 68.148 367.179 68.150 362.756 C 68.151 359.003,68.650 354.291,69.464 350.340 C 69.646 349.455,69.577 349.395,68.549 349.546 C 66.380 349.864,64.295 348.390,60.548 343.889 C 56.259 338.738,54.750 337.432,50.894 335.540 C 43.019 331.675,37.313 325.193,33.646 315.947 C 32.250 312.427,32.242 312.416,32.232 314.084 M293.814 313.199 C 293.962 313.446,293.731 313.707,293.253 313.832 C 292.806 313.949,292.524 314.129,292.627 314.232 C 292.731 314.336,293.284 314.295,293.856 314.141 C 294.836 313.880,294.858 313.831,294.229 313.320 C 293.862 313.022,293.675 312.967,293.814 313.199 M309.444 313.915 C 310.463 314.240,311.455 314.660,311.648 314.846 C 311.842 315.033,312.156 315.185,312.346 315.185 C 313.411 315.185,310.459 313.605,309.154 313.476 L 307.593 313.322 309.444 313.915 M118.498 314.314 C 118.380 314.620,113.152 314.827,99.831 315.055 L 81.328 315.370 80.833 317.037 C 80.207 319.149,79.043 324.775,78.707 327.315 L 78.449 329.259 98.254 329.259 L 118.058 329.259 118.483 326.401 C 119.313 320.822,119.324 312.188,118.498 314.314 M295.047 314.722 C 294.446 316.787,294.488 317.997,295.176 318.427 C 295.785 318.807,295.860 318.768,295.739 318.137 C 295.661 317.736,295.765 317.407,295.968 317.407 C 296.172 317.407,296.083 317.043,295.772 316.599 C 295.444 316.131,295.296 315.428,295.421 314.932 C 295.669 313.941,295.329 313.750,295.047 314.722 M212.824 315.111 C 212.726 315.458,212.531 316.491,212.390 317.407 C 212.249 318.324,211.808 320.132,211.411 321.425 C 210.702 323.732,210.739 324.594,211.514 323.819 C 211.939 323.394,214.057 316.495,214.068 315.503 C 214.077 314.655,213.044 314.330,212.824 315.111 M296.774 315.962 C 296.716 316.761,296.859 317.036,297.330 317.031 C 297.799 317.027,297.840 316.947,297.487 316.724 C 297.226 316.558,297.112 316.161,297.235 315.841 C 297.358 315.522,297.322 315.176,297.155 315.074 C 296.988 314.971,296.817 315.371,296.774 315.962 M305.073 315.115 C 304.542 315.220,304.494 315.355,304.840 315.772 C 305.175 316.175,305.169 316.425,304.815 316.852 C 304.198 317.595,304.936 318.514,305.940 318.252 C 306.737 318.043,306.848 317.742,306.325 317.204 C 306.137 317.010,305.928 316.431,305.862 315.917 C 305.775 315.245,305.553 315.020,305.073 315.115 M315.185 315.510 C 315.185 315.689,315.477 316.064,315.833 316.344 C 316.412 316.798,316.431 316.787,316.003 316.240 C 315.612 315.739,315.612 315.593,316.003 315.436 C 316.307 315.314,316.246 315.233,315.833 315.214 C 315.477 315.198,315.185 315.331,315.185 315.510 M306.296 315.671 C 306.296 315.735,306.838 316.180,307.500 316.660 C 308.624 317.476,308.657 317.480,307.998 316.730 C 307.152 315.766,307.594 315.664,308.675 316.574 C 309.444 317.222,309.444 317.221,308.739 316.389 C 308.178 315.727,306.296 315.174,306.296 315.671 M299.215 316.574 C 299.191 316.931,299.200 317.374,299.235 317.559 C 299.270 317.744,299.081 318.033,298.816 318.201 C 298.455 318.430,298.497 318.509,298.981 318.513 C 299.338 318.516,299.646 318.310,299.667 318.056 C 299.687 317.801,299.818 318.003,299.958 318.505 C 300.489 320.409,302.963 320.078,302.963 318.103 C 302.963 317.444,303.158 317.037,303.473 317.037 C 303.754 317.037,304.191 316.787,304.444 316.481 C 304.763 316.098,304.777 315.926,304.490 315.926 C 304.261 315.926,304.074 316.093,304.074 316.296 C 304.074 316.500,303.824 316.667,303.519 316.667 C 303.213 316.667,302.960 316.458,302.957 316.204 C 302.953 315.876,302.855 315.893,302.621 316.263 C 302.439 316.550,302.374 317.050,302.477 317.374 C 302.634 317.871,302.603 317.879,302.282 317.425 C 302.072 317.129,301.976 316.766,302.068 316.617 C 302.159 316.469,302.074 316.248,301.877 316.127 C 301.526 315.910,301.572 316.357,302.079 318.105 C 302.272 318.773,302.208 318.942,301.815 318.800 C 301.530 318.696,301.340 318.382,301.394 318.102 C 301.449 317.816,301.246 317.908,300.931 318.312 C 300.509 318.853,300.370 318.894,300.370 318.478 C 300.370 318.174,300.579 317.707,300.833 317.440 C 301.212 317.043,301.134 317.003,300.409 317.223 C 299.635 317.457,299.547 317.391,299.726 316.709 C 299.839 316.278,299.780 315.926,299.595 315.926 C 299.410 315.926,299.240 316.218,299.215 316.574 M96.111 333.328 L 77.963 333.519 77.847 334.444 C 77.721 335.446,76.021 344.096,75.681 345.466 L 75.474 346.303 94.853 346.207 L 114.232 346.111 115.781 339.815 C 117.511 332.782,117.515 332.930,115.626 333.050 C 114.874 333.098,106.093 333.223,96.111 333.328 M181.764 341.003 C 182.224 341.091,182.891 341.088,183.245 340.995 C 183.599 340.903,183.222 340.830,182.407 340.834 C 181.593 340.838,181.303 340.914,181.764 341.003 M93.079 350.278 C 76.144 350.370,74.848 350.423,74.658 351.022 C 74.237 352.351,73.338 359.147,73.336 361.019 L 73.333 362.963 85.648 362.962 C 92.421 362.961,100.333 362.852,103.230 362.719 L 108.497 362.478 109.583 359.850 C 110.845 356.798,112.963 350.838,112.963 350.341 C 112.963 350.153,112.588 350.040,112.130 350.089 C 111.671 350.138,103.099 350.223,93.079 350.278 M73.704 367.711 C 73.704 370.187,76.345 375.933,78.617 378.398 C 85.208 385.547,98.435 380.636,105.471 368.426 L 106.271 367.037 89.988 367.037 C 74.492 367.037,73.704 367.070,73.704 367.711 " stroke="none" fill="#857b8c" fill-rule="evenodd"></path></g></svg>