<?xml version="1.0" standalone="no"?>
<!DOCTYPE svg PUBLIC "-//W3C//DTD SVG 20010904//EN"
 "http://www.w3.org/TR/2001/REC-SVG-20010904/DTD/svg10.dtd">
<svg version="1.0" xmlns="http://www.w3.org/2000/svg"
 width="749.000000pt" height="736.000000pt" viewBox="0 0 749.000000 736.000000"
 preserveAspectRatio="xMidYMid meet">

<g transform="translate(0.000000,736.000000) scale(0.100000,-0.100000)"
fill="#FFFFFF" stroke="none">
<path d="M2285 6941 c-52 -24 -89 -64 -116 -125 -42 -95 -1 -211 95 -271 97
-59 231 -31 299 63 25 35 32 55 35 106 5 77 -9 126 -51 173 -62 70 -176 94
-262 54z"/>
<path d="M4540 6896 c-58 -13 -141 -36 -185 -51 -122 -41 -326 -145 -465 -236
-69 -45 -129 -82 -135 -82 -5 0 -62 35 -125 77 -130 87 -356 202 -475 242
-138 46 -345 80 -345 57 0 -5 8 -39 18 -78 17 -65 20 -70 48 -73 116 -11 256
-37 335 -63 117 -38 291 -121 384 -183 l69 -46 96 0 c94 0 96 1 139 35 61 49
286 157 401 193 201 63 411 66 550 7 195 -82 317 -211 404 -425 57 -140 94
-408 82 -598 l-7 -103 53 -87 c29 -48 67 -117 83 -154 17 -37 33 -68 37 -68 4
0 10 24 13 53 11 85 14 87 92 48 193 -95 403 -263 512 -411 110 -148 154 -279
150 -444 l-3 -100 47 -35 c46 -35 107 -105 107 -122 0 -5 4 -9 9 -9 16 0 41
136 41 222 0 145 -41 270 -135 413 -135 205 -327 363 -642 527 l-151 79 4 57
c3 31 9 84 14 117 13 93 12 172 -5 340 -17 169 -31 240 -70 355 -75 222 -204
387 -377 484 -143 79 -375 105 -568 62z"/>
<path d="M3561 6431 c-15 -35 -5 -60 34 -85 14 -9 25 -24 25 -34 0 -9 6 -35
14 -57 31 -93 31 -94 -45 -188 -38 -47 -69 -93 -69 -101 0 -25 18 -27 34 -4 9
12 19 19 22 15 4 -4 -2 -17 -14 -30 -11 -12 -26 -44 -33 -70 -16 -65 -1 -113
51 -161 22 -20 40 -41 40 -47 0 -6 5 -7 10 -4 14 9 13 -68 -2 -83 -7 -7 -22
-12 -35 -12 -21 0 -23 5 -23 44 0 36 -5 48 -26 65 -33 26 -64 27 -97 1 -21
-17 -27 -18 -36 -6 -7 8 -9 25 -5 40 12 50 -107 132 -155 106 -17 -9 -23 -6
-37 17 -9 16 -36 57 -59 93 -33 51 -41 72 -38 97 9 60 -74 83 -99 28 -14 -30
10 -72 44 -77 15 -2 40 -28 76 -81 l53 -77 -41 -113 c-24 -61 -49 -118 -58
-124 -13 -11 -13 -13 -1 -13 8 0 24 -3 35 -6 18 -5 21 -2 18 18 -3 12 0 30 5
38 8 12 15 10 41 -15 17 -16 34 -43 38 -59 14 -53 32 -43 32 18 0 43 3 56 15
56 21 0 22 -108 0 -116 -11 -4 -6 -15 21 -42 46 -47 69 -92 84 -166 15 -75 7
-135 -31 -212 -96 -201 -359 -251 -526 -101 -22 20 -48 52 -58 71 -13 24 -25
34 -35 31 -12 -4 -25 14 -50 65 l-34 70 -64 0 c-55 0 -63 2 -60 18 3 14 15 17
73 17 l69 0 24 -40 24 -40 -5 44 c-3 24 -10 48 -16 54 -5 5 -46 11 -90 11 -57
1 -84 5 -97 17 -53 46 -108 51 -152 14 -16 -14 -33 -37 -37 -52 -3 -16 -14
-36 -22 -45 -21 -23 -20 -68 3 -85 26 -19 43 -16 54 10 5 12 9 16 9 10 1 -14
52 -43 76 -43 8 0 15 7 15 15 0 9 8 18 18 22 9 3 25 13 34 21 15 12 23 11 72
-12 30 -14 59 -26 65 -26 13 0 52 -50 46 -60 -9 -14 -79 -9 -109 9 -62 38
-140 51 -108 19 8 -8 6 -17 -8 -36 -24 -30 -25 -60 -4 -90 17 -25 16 -26 -23
-11 -19 7 -46 7 -91 -1 -52 -9 -65 -8 -77 4 -44 43 -108 17 -113 -46 -6 -69
71 -96 118 -40 l25 30 0 -49 0 -49 -72 0 c-66 0 -74 2 -101 30 -32 31 -66 38
-93 17 -48 -37 -47 -107 1 -132 42 -21 58 -19 92 15 l30 30 209 0 210 0 -3
-22 c-2 -18 -9 -22 -28 -20 -39 4 -74 -38 -67 -80 l7 -33 -21 25 c-67 84 -102
104 -170 98 -55 -6 -110 -42 -134 -88 -8 -16 -15 -53 -15 -83 0 -53 0 -54 -52
-90 -40 -27 -56 -34 -70 -26 -39 21 -89 -11 -102 -64 -5 -23 -1 -34 23 -57 17
-18 40 -30 55 -30 36 0 76 44 76 83 1 27 8 37 47 64 l46 31 36 -29 c65 -51
141 -51 206 1 22 18 50 30 66 30 36 0 36 -5 -1 -37 -21 -17 -30 -34 -30 -54 0
-34 39 -79 68 -79 11 0 26 -7 33 -16 11 -14 11 -18 -4 -29 -15 -11 -16 -13 -2
-19 18 -7 20 -36 3 -36 -7 1 -28 14 -46 29 l-34 29 29 10 c15 6 21 11 12 11
-8 1 -26 12 -39 26 -32 34 -72 33 -100 -2 -13 -16 -19 -35 -16 -47 3 -11 -2
-28 -11 -38 -18 -20 -24 -75 -10 -102 5 -10 20 -28 33 -40 l25 -21 -26 -37
c-14 -20 -25 -42 -25 -47 0 -7 -36 -11 -99 -11 -75 0 -101 4 -111 15 -26 32
-90 5 -90 -38 0 -42 74 -65 97 -29 9 15 30 20 109 26 54 4 103 11 110 17 7 6
25 30 39 54 22 39 30 45 70 51 25 3 61 3 80 0 37 -7 43 -22 24 -57 -8 -17 -6
-28 14 -58 23 -35 23 -37 6 -36 -10 1 -32 13 -47 28 -33 32 -65 34 -92 7 -26
-26 -25 -50 0 -78 26 -27 50 -28 83 -2 22 17 33 19 97 12 58 -5 75 -11 87 -28
13 -20 11 -22 -68 -50 -45 -16 -86 -36 -90 -44 -4 -8 -15 -70 -25 -137 l-17
-121 -88 -45 c-56 -28 -92 -41 -101 -36 -57 37 -120 -49 -70 -94 35 -32 82
-15 97 33 4 13 40 37 98 66 51 26 94 48 96 50 3 3 10 41 15 85 l11 81 110 34
c61 18 117 34 125 34 8 0 39 -24 68 -54 l53 -53 -28 -11 c-103 -39 -133 -44
-165 -29 -33 16 -52 13 -80 -11 -40 -34 -7 -112 47 -112 27 0 65 31 65 54 0
15 19 24 127 57 l72 22 33 -25 c18 -14 43 -28 56 -32 31 -10 28 -19 -18 -38
l-40 -17 0 -81 c0 -77 -2 -85 -30 -117 -42 -48 -41 -94 4 -139 24 -24 43 -34
65 -34 26 0 31 -4 31 -23 0 -31 18 -47 52 -47 35 0 54 31 37 61 -9 17 -6 33
18 84 l28 64 45 -6 c25 -3 47 -7 49 -9 9 -8 -35 -74 -49 -74 -8 0 -21 -9 -28
-21 -11 -17 -11 -25 3 -45 30 -47 93 -21 82 33 -6 29 50 203 66 203 17 0 6
-92 -15 -129 l-22 -38 20 -34 c37 -63 109 -62 141 1 8 16 13 19 13 9 0 -9 9
-24 20 -34 11 -10 20 -27 20 -37 0 -31 19 -60 73 -110 49 -46 88 -60 102 -38
4 6 24 18 46 26 38 16 98 73 100 97 3 42 -5 103 -17 132 -8 19 -14 46 -14 60
0 22 3 24 19 15 39 -21 77 -12 110 25 17 20 31 46 31 58 0 21 1 21 27 -5 21
-22 24 -30 14 -41 -40 -49 -29 -127 24 -161 36 -23 98 -16 131 15 26 24 31 19
36 -36 2 -20 12 -34 31 -45 24 -13 30 -13 55 0 18 11 28 25 30 45 4 46 -18 68
-69 69 -42 1 -44 2 -49 36 -7 40 -22 71 -44 90 -12 9 -16 33 -16 96 0 72 3 85
19 94 29 15 30 14 14 -32 l-15 -43 34 -30 c19 -16 65 -55 103 -85 38 -30 84
-69 103 -86 l35 -31 -22 -63 c-11 -35 -21 -71 -21 -79 0 -8 28 -48 62 -90 47
-57 61 -82 60 -103 -3 -31 28 -68 56 -68 25 0 52 31 52 60 0 26 -26 49 -56 50
-19 0 -56 38 -128 128 -19 24 -19 25 2 90 11 37 28 92 36 122 l15 55 -64 65
c-80 80 -117 149 -109 201 7 41 10 46 42 74 15 12 26 15 30 9 4 -6 59 -27 122
-48 190 -63 230 -78 225 -86 -3 -4 5 -19 16 -34 36 -45 102 -31 122 27 8 23 5
22 -27 -8 -15 -14 -33 -25 -40 -25 -23 0 -45 25 -49 55 -3 29 -7 31 -170 85
-91 31 -168 58 -171 61 -3 2 18 31 47 63 l52 57 56 -29 c31 -16 75 -36 98 -45
23 -9 41 -24 41 -32 0 -23 37 -55 63 -55 29 0 57 29 57 58 0 12 2 22 4 22 13
0 105 -52 116 -65 24 -29 33 -17 26 33 -4 26 -8 56 -9 67 -3 28 -71 71 -162
101 -98 32 -125 48 -125 74 0 11 2 20 4 20 13 0 97 -35 196 -82 63 -31 131
-61 152 -68 50 -18 92 -96 75 -139 -23 -62 35 -116 92 -86 46 23 54 67 21 103
-12 12 -31 22 -44 22 -18 0 -32 13 -57 56 -31 52 -40 59 -116 92 l-83 37 39
18 c49 23 72 65 60 115 -19 86 -110 114 -172 54 -28 -28 -37 -31 -79 -27 -58
5 -68 10 -68 36 0 27 65 64 106 60 18 -1 41 2 52 8 15 8 34 5 83 -15 35 -14
69 -29 74 -33 6 -4 42 -21 80 -36 84 -34 95 -42 95 -65 0 -22 45 -60 72 -60
25 0 68 44 68 70 0 12 -11 32 -25 46 -25 25 -52 27 -93 5 -11 -6 -23 -6 -28
-1 -5 5 -47 25 -94 45 -185 80 -190 83 -190 113 0 15 -7 38 -16 50 -15 22 -15
22 42 22 45 0 63 -5 80 -21 47 -44 124 -15 124 47 0 27 -32 64 -55 64 -8 0
-21 13 -29 29 -8 15 -29 34 -47 41 -29 12 -36 11 -70 -8 -23 -14 -55 -22 -82
-22 -42 0 -47 3 -70 43 l-25 42 21 8 c26 10 178 3 227 -10 26 -7 50 -6 85 3
28 7 89 13 136 14 82 0 87 -1 135 -35 40 -28 49 -41 50 -67 2 -38 43 -78 80
-78 32 0 74 45 74 80 0 50 -66 94 -108 71 -16 -8 -29 -3 -72 29 -52 39 -56 40
-132 40 l-79 0 17 32 c11 22 15 48 12 84 l-5 53 28 -6 c21 -4 31 0 44 20 10
16 14 34 10 47 -10 33 38 26 75 -11 26 -26 36 -30 62 -25 47 9 68 33 68 77 0
29 -6 42 -26 58 -37 29 -67 26 -102 -9 -29 -29 -34 -30 -116 -30 -83 0 -86 1
-86 23 0 52 -65 66 -97 21 -13 -18 -34 -29 -64 -35 -81 -15 -83 -14 -115 51
-31 63 -56 80 -92 61 -12 -6 -29 -11 -39 -11 -10 0 -25 -5 -33 -10 -13 -9 -12
-12 4 -25 17 -13 17 -15 3 -20 -8 -4 -24 -2 -35 4 -19 10 -19 11 4 59 l24 49
57 5 c51 5 60 3 80 -18 24 -26 70 -32 103 -14 10 5 24 25 30 44 14 43 2 69
-42 92 -26 13 -37 14 -67 4 -20 -6 -60 -10 -90 -8 l-54 3 96 77 c87 69 100 76
130 71 28 -4 37 -1 55 22 27 35 28 55 2 83 -41 43 -110 18 -110 -40 0 -22 -25
-47 -142 -141 -79 -62 -148 -117 -155 -120 -10 -6 -53 52 -53 71 0 4 44 41 97
82 53 41 113 89 132 105 20 17 77 63 127 102 73 58 97 72 124 71 23 -1 39 6
52 22 85 105 -135 -14 -367 -198 -93 -75 -175 -139 -182 -144 -8 -7 -22 1 -42
24 -17 18 -31 36 -31 40 0 4 22 25 49 45 30 23 48 44 45 53 -2 10 17 26 59 47
34 18 98 62 141 97 66 54 84 64 107 59 30 -6 69 25 69 55 -2 75 -120 73 -120
-2 0 -15 -45 -56 -152 -141 -83 -66 -169 -135 -190 -154 l-38 -33 -40 38 c-38
36 -40 41 -40 100 0 42 5 65 15 74 10 9 15 32 15 74 1 46 8 76 29 120 23 48
27 66 20 90 -14 47 -42 79 -78 89 -27 7 -32 12 -28 30 3 12 9 44 12 70 5 31
14 51 25 57 25 13 34 45 20 70 -12 23 -68 28 -88 8 -17 -17 -15 -53 3 -68 16
-13 15 -95 -1 -150 -13 -42 -104 -110 -182 -135 -29 -10 -59 -27 -67 -38 -19
-27 -19 -76 0 -101 16 -21 20 -62 8 -69 -5 -3 -17 -1 -29 3 -18 7 -21 17 -23
107 -2 80 1 102 13 112 9 8 16 29 16 50 0 68 -72 104 -128 65 -12 -8 -27 -12
-32 -9 -20 12 -10 -65 15 -119 22 -48 33 -106 20 -106 -2 0 -15 5 -29 11 -30
14 -56 -1 -56 -32 0 -21 -12 -23 -72 -13 -37 6 -38 8 -38 47 0 35 6 46 45 82
71 67 103 172 70 234 -12 25 -13 36 -5 46 6 8 10 28 8 47 -7 70 -103 78 -123
10 -7 -23 -15 -32 -31 -32 -12 0 -35 -3 -53 -6 -52 -11 -49 17 8 86 28 34 51
63 51 66 0 3 -12 51 -26 106 -22 86 -24 104 -13 125 9 16 10 32 3 51 -8 23
-16 27 -50 30 -37 3 -42 0 -53 -27z m257 -383 c17 -17 15 -53 -3 -68 -21 -17
-75 5 -75 30 0 39 52 64 78 38z m-68 -93 c63 -33 88 -121 50 -182 -70 -116
-230 -81 -246 54 -13 100 103 176 196 128z m258 -147 c22 -22 14 -67 -14 -80
-45 -21 -87 21 -66 66 13 28 58 36 80 14z m-698 -23 c55 -28 52 -105 -4 -131
-30 -15 -35 -15 -64 0 -53 28 -56 102 -4 130 34 19 37 19 72 1z m1086 -8 c20
-17 27 -33 27 -57 0 -37 -39 -80 -73 -80 -34 0 -73 43 -73 80 0 37 39 80 73
80 10 0 31 -11 46 -23z m-1009 -64 c-3 -10 -5 -4 -5 12 0 17 2 24 5 18 2 -7 2
-21 0 -30z m859 -17 c3 -13 17 -34 30 -47 20 -19 24 -32 24 -83 l0 -61 -43
-17 c-23 -10 -45 -18 -49 -18 -4 0 -5 35 -3 78 1 42 -2 92 -8 110 -10 30 -9
36 8 48 26 19 34 18 41 -10z m-256 -69 c0 -58 -2 -64 -27 -78 -27 -15 -63 -15
-63 -1 0 4 14 15 30 24 27 15 30 22 30 68 0 38 4 50 15 50 12 0 15 -14 15 -63z
m-290 -2 c0 -42 -3 -55 -15 -55 -12 0 -15 13 -15 55 0 42 3 55 15 55 12 0 15
-13 15 -55z m-289 -3 c25 -65 24 -68 -25 -81 -65 -16 -66 -15 -66 31 0 32 6
49 27 70 29 31 47 25 64 -20z m124 28 c15 -16 17 -26 9 -47 -20 -56 -94 -43
-94 17 0 48 52 66 85 30z m630 0 c15 -16 17 -26 9 -47 -20 -56 -94 -43 -94 17
0 48 52 66 85 30z m200 -106 l0 -69 -66 -35 c-57 -29 -69 -32 -83 -21 -14 12
-8 17 49 44 l65 30 0 57 c0 31 3 60 7 64 18 18 28 -6 28 -70z m-219 -38 c4
-36 -2 -47 -21 -39 -22 8 -20 76 1 71 10 -2 18 -15 20 -32z m194 -126 c0 -36
-2 -40 -18 -31 -21 11 -47 40 -41 45 10 8 45 25 52 26 4 0 7 -18 7 -40z m676
-61 c20 -22 13 -43 -19 -63 -36 -23 -75 36 -47 70 17 20 44 17 66 -7z m-2548
-25 c33 -23 31 -86 -4 -113 -77 -60 -161 38 -96 112 19 21 70 22 100 1z m167
-115 c11 -17 0 -20 -21 -4 -17 13 -17 14 -2 15 9 0 20 -5 23 -11z m-84 -119
c29 -16 25 -65 -6 -86 -23 -15 -27 -15 -50 0 -29 19 -32 51 -8 78 18 20 36 23
64 8z m2414 -10 c35 -39 -9 -104 -55 -80 -34 18 -44 48 -25 76 19 29 55 31 80
4z m-120 -20 c0 -12 -16 -16 -68 -18 l-68 -3 -15 -39 c-9 -22 -20 -40 -24 -40
-18 0 -18 33 0 75 l20 46 77 -3 c61 -2 78 -6 78 -18z m-2159 -19 c-11 -17 -86
-14 -86 3 0 10 13 16 38 18 40 3 58 -4 48 -21z m-36 -48 c0 -3 -8 -24 -17 -44
-17 -37 -33 -51 -33 -29 0 5 -20 15 -45 21 -25 6 -48 16 -52 22 -4 6 0 8 11 4
9 -4 25 -1 36 5 14 9 22 9 36 -3 16 -13 17 -12 12 9 -5 19 -2 22 23 22 16 0
29 -3 29 -7z m-396 -9 c37 -14 10 -84 -32 -84 -33 0 -52 16 -52 45 0 38 39 56
84 39z m2606 -53 c7 -15 5 -17 -21 -13 -34 5 -48 21 -29 32 17 10 38 2 50 -19z
m-2456 -7 c22 -21 20 -47 -4 -69 -44 -40 -107 25 -69 71 15 19 54 18 73 -2z
m185 -38 c9 -16 10 -29 3 -42 -9 -16 -10 -16 -21 4 -10 18 -21 22 -66 22 -48
0 -55 2 -55 20 0 18 7 20 63 20 57 0 65 -3 76 -24z m2286 -16 c27 -29 10 -74
-28 -78 -36 -4 -57 13 -57 49 0 47 53 65 85 29z m-2763 -25 c17 -37 -3 -75
-40 -75 -35 0 -52 16 -52 50 0 34 17 50 52 50 21 0 32 -7 40 -25z m3357 -1
c10 -22 9 -31 -4 -50 -36 -56 -116 -8 -85 51 19 36 72 35 89 -1z m-714 -4 c0
-22 -39 -19 -43 3 -3 15 1 18 20 15 12 -2 23 -10 23 -18z m315 -15 c-14 -16
-50 -21 -50 -6 0 9 20 17 49 20 11 1 11 -2 1 -14z m-114 -46 c-14 -11 -33 -34
-41 -50 -9 -16 -22 -29 -30 -29 -20 0 -19 4 11 56 22 37 31 44 56 44 l31 0
-27 -21z m244 1 c-8 -16 -15 -18 -28 -10 -47 27 -48 30 -4 30 40 0 42 -1 32
-20z m-109 0 c19 -5 48 -24 65 -41 25 -27 29 -38 29 -89 0 -54 -3 -63 -32 -91
-26 -27 -41 -33 -85 -36 -65 -5 -106 17 -132 72 -33 69 -5 143 67 176 50 22
43 21 88 9z m-251 -32 c-1 -22 -25 -46 -52 -53 -21 -5 -29 -2 -38 15 -19 35
-6 50 45 50 29 0 45 -4 45 -12z m-2450 -43 c76 -72 53 -188 -43 -224 -39 -15
-63 -14 -103 5 -92 44 -99 180 -11 235 46 29 118 22 157 -16z m2505 -55 c0
-12 -15 -16 -67 -18 -63 -3 -68 -1 -68 18 0 19 5 21 68 18 52 -2 67 -6 67 -18z
m-2355 -45 c0 -11 -11 -15 -40 -15 -29 0 -40 4 -40 15 0 11 11 15 40 15 29 0
40 -4 40 -15z m2358 -10 c20 -7 14 -32 -10 -39 -13 -3 -44 -6 -70 -6 -44 0
-48 2 -48 24 0 13 6 27 13 29 12 6 89 -1 115 -8z m-2380 -42 c-10 -2 -26 -2
-35 0 -10 3 -2 5 17 5 19 0 27 -2 18 -5z m16 -114 c12 -60 8 -71 -21 -67 -38
4 -54 49 -28 78 26 28 42 25 49 -11z m-513 11 c22 -12 26 -59 7 -78 -19 -19
-66 -15 -78 7 -14 27 -13 47 6 65 18 19 38 20 65 6z m3510 0 c24 -13 27 -75 3
-84 -48 -18 -84 1 -84 46 0 40 40 59 81 38z m-733 -52 c10 -13 30 -18 64 -18
37 0 48 -4 48 -15 0 -13 -12 -15 -67 -13 l-68 3 -2 45 c-1 25 0 38 4 30 3 -8
12 -23 21 -32z m224 5 c24 -21 23 -55 -3 -79 -19 -17 -23 -17 -47 -3 -36 20
-41 61 -10 83 28 20 37 20 60 -1z m-2554 -149 c33 -23 31 -86 -4 -113 -77 -60
-161 38 -96 112 19 21 70 22 100 1z m2404 -11 c22 -20 23 -41 1 -65 -32 -36
-83 -17 -83 32 0 48 45 67 82 33z m-117 -42 c-9 -16 -25 -3 -18 15 4 10 9 12
15 6 6 -6 7 -15 3 -21z m-2187 -4 c3 -12 -3 -17 -22 -17 -25 0 -35 18 -19 34
12 12 38 2 41 -17z m2192 -41 c0 -2 -11 -11 -24 -19 -23 -15 -24 -15 -19 3 4
16 43 30 43 16z m-2172 -24 c3 -10 -6 -12 -34 -10 -20 2 -39 9 -42 16 -3 10 6
12 34 10 20 -2 39 -9 42 -16z m47 -112 c20 -44 17 -55 -12 -46 -30 10 -45 41
-31 70 14 31 20 28 43 -24z m2358 23 c8 -10 19 -30 22 -45 6 -22 1 -33 -24
-59 -37 -36 -72 -34 -108 7 -28 31 -29 54 -2 88 25 32 86 37 112 9z m-290 -12
c4 -17 15 -20 68 -23 51 -2 64 -6 67 -20 3 -16 -6 -18 -72 -18 -71 0 -77 2
-88 24 -11 26 -6 56 11 56 5 0 11 -9 14 -19z m621 -14 c8 -23 6 -31 -11 -49
-43 -43 -102 7 -73 62 17 32 71 24 84 -13z m-2809 -51 c19 -29 10 -54 -21 -62
-46 -12 -70 32 -37 68 22 24 39 23 58 -6z m2146 -44 c1 -57 10 -63 150 -111
133 -46 134 -46 137 -79 3 -29 1 -32 -15 -23 -33 17 -141 44 -156 38 -8 -3
-23 0 -33 8 -11 7 -39 19 -62 26 -30 9 -48 21 -58 41 -19 36 -48 38 -41 3 3
-16 0 -24 -7 -22 -20 7 -17 33 6 59 13 13 32 41 42 61 21 40 36 40 37 -1z
m199 3 c16 -19 3 -19 -30 0 -24 13 -24 14 -4 15 12 0 27 -7 34 -15z m-2092
-125 c14 -23 4 -29 -98 -57 -103 -29 -100 -29 -91 3 6 25 18 33 82 55 80 29
88 29 107 -1z m2450 -136 c30 -21 29 -59 -3 -80 -23 -15 -27 -15 -50 0 -32 21
-33 59 -3 80 12 9 25 16 28 16 3 0 16 -7 28 -16z m-2490 -96 c21 -21 14 -57
-13 -70 -22 -10 -29 -9 -47 10 -19 18 -20 25 -10 47 13 27 49 34 70 13z m1572
-23 c0 -16 -6 -25 -15 -25 -28 0 -18 40 13 49 1 1 2 -10 2 -24z m-1186 -41
c26 -10 19 -21 -24 -38 l-39 -15 -3 -63 c-4 -86 -22 -75 -26 15 l-3 74 38 16
c21 8 39 15 40 16 1 1 8 -2 17 -5z m1212 -39 c15 -23 15 -27 0 -50 -10 -15
-26 -25 -41 -25 -15 0 -31 10 -41 25 -15 23 -15 27 0 50 10 15 26 25 41 25 15
0 31 -10 41 -25z m-1132 -1 c22 -9 20 -56 -5 -98 -12 -21 -18 -43 -14 -55 3
-12 -2 -36 -13 -58 l-20 -38 -7 50 c-4 28 -11 58 -16 67 -9 16 19 96 43 125
12 15 11 15 32 7z m934 -66 c-2 -57 -6 -73 -18 -73 -20 0 -28 124 -8 136 25
17 29 8 26 -63z m-1017 19 c-14 -37 -33 -45 -27 -11 3 15 11 31 18 35 18 11
20 5 9 -24z m164 3 c0 -8 -8 -16 -17 -18 -13 -2 -18 3 -18 18 0 15 5 20 18 18
9 -2 17 -10 17 -18z m787 -22 c3 -24 3 -46 1 -51 -3 -4 -21 9 -40 28 -20 20
-34 37 -32 39 12 10 46 25 55 26 7 0 14 -19 16 -42z m-705 -4 c1 -5 -2 -16 -7
-24 -9 -13 -13 -11 -29 10 -11 13 -17 28 -15 32 6 9 47 -6 51 -18z m1058 -46
c41 -39 55 -59 55 -80 0 -16 -5 -28 -13 -28 -13 0 -147 106 -147 116 0 5 41
43 47 44 1 0 27 -23 58 -52z m-961 33 c3 -5 -1 -11 -9 -15 -11 -4 -15 -21 -15
-61 0 -42 -3 -55 -15 -55 -12 0 -15 14 -15 63 0 35 3 67 7 70 9 10 41 9 47 -2z
m-159 -21 c27 -29 10 -74 -28 -78 -36 -4 -57 13 -57 49 0 47 53 65 85 29z
m525 9 c0 -6 -5 -20 -12 -32 -6 -12 -11 -37 -11 -54 0 -19 -5 -33 -11 -33 -24
0 -36 25 -36 71 0 41 3 48 23 52 40 8 47 7 47 -4z m102 -6 c36 -32 17 -83 -32
-83 -14 0 -31 5 -38 12 -27 27 -3 88 35 88 9 0 25 -7 35 -17z m-382 -66 c0
-61 -3 -77 -20 -92 -11 -10 -21 -16 -23 -14 -28 38 -38 64 -28 67 30 10 43 36
37 74 -6 33 -4 38 14 38 18 0 20 -7 20 -73z m110 21 c0 -54 -3 -59 -70 -95 -4
-3 -4 47 -1 135 1 7 15 12 36 12 l35 0 0 -52z m68 5 c-2 -36 -7 -49 -20 -51
-15 -3 -18 4 -18 47 0 45 3 51 21 51 18 0 20 -5 17 -47z m-224 -20 c-18 -29
-34 -27 -34 5 0 37 10 46 29 27 12 -11 13 -20 5 -32z m-389 17 c3 -5 1 -10 -4
-10 -6 0 -11 5 -11 10 0 6 2 10 4 10 3 0 8 -4 11 -10z m-21 -41 c18 -14 26
-30 26 -52 0 -70 -87 -105 -129 -51 -28 35 -26 69 4 99 30 30 64 32 99 4z
m1061 15 c24 -10 46 -60 39 -89 -13 -53 -86 -73 -124 -35 -12 12 -20 33 -20
55 0 57 49 90 105 69z m-354 -90 c57 -55 56 -141 -3 -196 -39 -37 -103 -41
-160 -12 -62 32 -79 138 -31 194 34 41 58 51 116 46 36 -2 55 -10 78 -32z
m-333 -28 c7 -55 -53 -78 -84 -31 -19 29 -12 58 19 73 30 14 61 -7 65 -42z
m97 7 c-4 -10 -10 -26 -12 -35 -6 -22 -23 -14 -23 11 0 18 18 41 33 41 5 0 6
-8 2 -17z m753 -25 c26 -26 8 -78 -27 -78 -21 0 -51 30 -51 51 0 32 54 51 78
27z"/>
<path d="M3653 5928 c-42 -11 -63 -43 -63 -94 0 -35 5 -47 31 -68 76 -65 190
6 159 99 -6 18 -17 38 -25 45 -23 19 -69 27 -102 18z m74 -36 c41 -26 29 -109
-15 -105 -12 2 -22 -2 -22 -7 0 -16 -26 -12 -50 8 -16 13 -21 26 -18 52 l4 35
17 -37 c19 -42 28 -50 46 -39 10 7 8 17 -8 49 -12 23 -21 44 -21 47 0 8 53 6
67 -3z"/>
<path d="M3246 5744 c-19 -18 -19 -20 -6 -45 6 -11 21 -19 35 -19 20 0 45 24
45 44 0 10 -32 36 -45 36 -7 0 -21 -7 -29 -16z m34 -24 c0 -5 -4 -10 -10 -10
-5 0 -10 5 -10 10 0 6 5 10 10 10 6 0 10 -4 10 -10z"/>
<path d="M4320 5745 c-26 -32 13 -81 48 -59 34 22 22 74 -18 74 -10 0 -23 -7
-30 -15z m40 -25 c0 -5 -4 -10 -10 -10 -5 0 -10 5 -10 10 0 6 5 10 10 10 6 0
10 -4 10 -10z"/>
<path d="M2390 5265 c-19 -23 -4 -65 23 -65 45 0 65 50 28 70 -26 14 -36 13
-51 -5z m35 -25 c3 -5 1 -10 -4 -10 -6 0 -11 5 -11 10 0 6 2 10 4 10 3 0 8 -4
11 -10z"/>
<path d="M5014 4710 c-31 -12 -54 -49 -54 -88 0 -44 14 -68 52 -88 66 -34 143
12 143 88 0 70 -73 116 -141 88z m104 -67 c3 -17 0 -21 -12 -17 -20 8 -66 -21
-66 -41 0 -20 -36 -19 -44 1 -15 39 -7 63 27 73 54 16 92 9 95 -16z m-1 -50
c6 -18 -45 -49 -59 -35 -9 9 -7 17 7 32 20 22 46 23 52 3z"/>
<path d="M2263 4665 c-40 -17 -69 -71 -59 -110 12 -47 49 -75 100 -75 37 0 48
5 70 31 35 42 35 89 -1 128 -34 36 -68 44 -110 26z m91 -47 c19 -27 21 -69 4
-86 -7 -7 -31 -12 -55 -12 -34 0 -46 5 -59 25 -16 24 -13 56 8 83 18 21 85 15
102 -10z"/>
<path d="M2396 4197 c-36 -26 4 -84 42 -61 24 16 27 45 6 61 -10 7 -21 13 -24
13 -3 0 -14 -6 -24 -13z m29 -27 c3 -5 1 -10 -4 -10 -6 0 -11 5 -11 10 0 6 2
10 4 10 3 0 8 -4 11 -10z"/>
<path d="M4910 3985 c-26 -32 13 -81 48 -59 34 22 22 74 -18 74 -10 0 -23 -7
-30 -15z m40 -25 c0 -5 -4 -10 -10 -10 -5 0 -10 5 -10 10 0 6 5 10 10 10 6 0
10 -4 10 -10z"/>
<path d="M3018 3229 c-25 -14 -23 -56 3 -69 16 -9 25 -8 40 6 24 21 24 36 1
57 -21 20 -21 20 -44 6z m32 -28 c0 -6 -4 -13 -10 -16 -5 -3 -10 1 -10 9 0 9
5 16 10 16 6 0 10 -4 10 -9z"/>
<path d="M4075 3220 c-10 -17 3 -57 21 -64 27 -10 56 12 52 42 -2 22 -9 28
-35 30 -17 2 -34 -2 -38 -8z m45 -31 c0 -5 -4 -9 -10 -9 -5 0 -10 7 -10 16 0
8 5 12 10 9 6 -3 10 -10 10 -16z"/>
<path d="M3664 3170 c-30 -12 -64 -58 -64 -87 0 -126 180 -140 197 -16 5 39 2
46 -30 78 -35 35 -62 42 -103 25z m96 -59 c21 -40 -9 -101 -49 -101 -12 0 -16
122 -5 133 10 9 42 -10 54 -32z m-90 -36 c0 -59 -5 -65 -26 -37 -17 21 -18 64
-2 80 22 22 28 13 28 -43z"/>
<path d="M2017 6347 c-9 -30 -21 -74 -26 -98 -6 -24 -14 -62 -20 -84 -17 -65
-31 -371 -23 -500 l7 -120 59 80 c33 44 80 105 106 135 l47 55 6 105 c3 58 10
119 15 135 6 17 16 57 23 90 7 33 19 74 26 92 17 43 17 73 -2 73 -8 0 -53 20
-101 45 -47 25 -89 45 -93 45 -4 0 -15 -24 -24 -53z"/>
<path d="M2298 5899 c-25 -14 -24 -71 2 -94 14 -12 28 -16 50 -12 25 5 46 -3
114 -43 l83 -50 7 -53 c3 -28 6 -77 6 -107 0 -30 3 -72 7 -93 6 -36 10 -41 80
-73 40 -19 78 -32 83 -29 23 14 6 33 -55 60 -36 16 -65 35 -65 41 0 7 -3 19
-6 28 -9 23 12 20 95 -15 l73 -30 33 38 33 38 -25 3 c-14 2 -33 -4 -42 -12
-16 -14 -22 -14 -67 3 -109 41 -104 37 -104 78 0 21 -3 61 -6 89 l-6 50 -88
56 c-66 42 -92 66 -106 95 -15 30 -25 39 -49 40 -16 2 -38 -2 -47 -8z"/>
<path d="M2702 5720 c-60 -56 16 -153 86 -109 15 9 33 5 89 -20 77 -33 90 -36
113 -21 11 7 3 14 -35 30 -113 49 -135 61 -135 76 0 23 -46 64 -73 64 -13 0
-33 -9 -45 -20z m69 -10 c12 -7 19 -21 19 -38 0 -49 -37 -67 -72 -35 -24 22
-23 49 4 67 27 19 24 19 49 6z"/>
<path d="M5020 5570 c-8 -5 -10 -10 -5 -10 6 0 17 5 25 10 8 5 11 10 5 10 -5
0 -17 -5 -25 -10z"/>
<path d="M4521 5522 c-6 -12 -11 -32 -11 -45 0 -14 -6 -30 -14 -36 -16 -13
-28 -51 -16 -51 4 0 19 9 33 20 18 14 34 19 51 14 32 -8 34 8 4 21 -18 8 -23
19 -24 47 -1 46 -9 56 -23 30z"/>
<path d="M4610 5537 c0 -2 5 -18 11 -36 9 -27 8 -35 -6 -51 -10 -11 -13 -20
-7 -20 23 0 43 46 33 73 -8 21 -31 47 -31 34z"/>
<path d="M1785 5406 c-224 -119 -347 -207 -485 -346 -144 -145 -225 -276 -265
-429 -24 -92 -20 -291 6 -377 80 -261 326 -524 654 -701 139 -75 197 -104 202
-100 2 3 -19 49 -46 104 -27 55 -60 125 -71 156 -16 44 -29 61 -53 73 -106 54
-296 234 -375 354 -137 210 -155 446 -52 665 49 104 115 190 227 295 85 81
130 115 253 192 44 27 62 48 88 95 34 64 37 73 25 73 -5 0 -53 -24 -108 -54z"/>
<path d="M4401 5366 c-14 -15 -19 -26 -12 -30 17 -11 51 13 51 34 0 26 -12 25
-39 -4z"/>
<path d="M5939 4192 c-42 -21 -61 -40 -86 -82 -68 -113 -30 -252 86 -312 220
-115 438 161 273 344 -74 82 -176 101 -273 50z"/>
<path d="M5596 3673 c-53 -27 -71 -32 -77 -22 -11 18 -13 15 -63 -87 -23 -49
-62 -119 -84 -156 -23 -38 -38 -68 -34 -68 4 0 28 8 54 17 26 9 51 13 55 9 15
-15 7 -376 -11 -474 -61 -347 -241 -578 -511 -657 -75 -22 -248 -22 -365 1
-144 27 -379 125 -499 207 -47 32 -63 33 -246 7 -38 -5 -134 -7 -212 -4 -142
6 -143 6 -189 -21 -83 -49 -168 -88 -279 -131 l-110 -41 -6 -104 c-3 -57 -4
-106 -2 -109 8 -10 176 55 308 120 123 60 335 189 373 227 21 21 35 16 106
-37 37 -28 84 -59 104 -70 20 -12 73 -42 117 -68 521 -308 1028 -294 1299 34
115 139 190 331 227 579 15 95 18 408 5 517 l-8 77 98 51 c132 68 194 103 194
110 0 4 -16 14 -36 23 -19 10 -57 37 -83 62 -26 25 -50 45 -52 44 -2 0 -35
-16 -73 -36z"/>
<path d="M4974 3548 c3 -13 6 -38 6 -56 0 -32 3 -34 105 -83 76 -36 105 -55
105 -68 0 -25 32 -51 62 -51 52 0 77 69 38 105 -15 14 -29 16 -59 11 -35 -5
-53 0 -126 36 -65 33 -85 47 -85 63 0 24 -26 65 -42 65 -6 0 -8 -10 -4 -22z"/>
<path d="M4797 3553 c-15 -14 -6 -23 17 -17 14 3 29 0 39 -10 19 -20 27 -20
27 -1 0 25 -64 47 -83 28z"/>
<path d="M1953 3098 c4 -182 10 -273 21 -323 9 -38 21 -88 26 -110 21 -97 102
-284 149 -344 l19 -24 37 77 c21 42 42 79 46 82 5 3 -4 24 -20 47 -59 87 -135
265 -147 346 -3 20 -10 52 -15 71 -6 19 -13 98 -16 175 l-6 140 -40 58 c-22
31 -44 57 -50 57 -6 0 -7 -93 -4 -252z"/>
<path d="M2538 2378 c-42 -14 -68 -32 -97 -65 -143 -162 6 -410 218 -363 47
10 64 21 107 64 32 33 53 65 57 85 28 138 -29 242 -157 284 -59 20 -57 20
-128 -5z"/>
<path d="M4405 1726 c-68 -30 -107 -113 -85 -181 14 -44 74 -96 152 -136 103
-51 138 -95 117 -143 -26 -56 -112 -66 -180 -22 -29 19 -49 44 -67 84 l-27 57
-3 -94 c-1 -51 0 -96 3 -99 2 -3 14 3 25 13 19 17 22 17 63 1 53 -20 149 -21
186 -2 15 8 42 31 60 51 26 30 31 44 31 86 0 87 -33 126 -160 189 -83 41 -120
75 -120 111 0 42 44 72 97 66 57 -6 101 -41 129 -101 l24 -51 0 93 c0 55 -4
92 -10 92 -5 0 -10 -6 -10 -14 0 -25 -17 -27 -70 -6 -58 23 -112 25 -155 6z"/>
<path d="M1293 1713 l37 -15 0 -233 c0 -248 0 -249 -50 -258 -14 -2 38 -5 115
-5 121 -1 135 1 105 11 l-35 12 0 235 0 235 35 17 c35 18 35 18 -105 17 -136
0 -139 0 -102 -16z"/>
<path d="M1575 1720 c3 -5 12 -10 19 -10 7 0 22 -11 34 -23 22 -23 22 -29 20
-238 l-3 -214 -35 -17 -35 -18 95 1 c76 1 89 3 63 10 -18 5 -37 18 -43 29 -6
12 -9 88 -8 200 l3 181 174 -216 c95 -118 177 -215 182 -215 5 0 9 106 9 243
0 133 4 247 8 254 4 6 21 18 37 25 l30 13 -48 3 c-26 2 -67 2 -90 0 -40 -3
-41 -4 -17 -15 48 -21 51 -32 48 -173 l-3 -132 -128 161 -129 161 -94 0 c-61
0 -93 -4 -89 -10z"/>
<path d="M2165 1720 c3 -5 12 -10 20 -10 7 0 23 -12 34 -26 20 -25 21 -40 21
-220 0 -106 -4 -204 -10 -218 -6 -16 -21 -29 -42 -35 -26 -7 -13 -9 67 -10 90
0 97 1 65 12 -54 19 -60 41 -60 236 0 138 3 171 13 163 6 -6 86 -103 177 -216
91 -113 168 -205 172 -206 4 0 8 110 10 243 3 256 7 277 49 277 11 0 19 5 19
10 0 6 -36 10 -87 10 l-88 -1 35 -17 c20 -10 37 -27 41 -42 10 -34 11 -260 2
-260 -5 1 -64 73 -133 160 l-125 160 -93 0 c-60 0 -91 -4 -87 -10z"/>
<path d="M2913 1709 c-50 -24 -109 -86 -131 -138 -24 -55 -21 -165 7 -226 48
-107 127 -155 257 -155 102 0 171 31 218 97 43 62 54 97 55 178 1 87 -28 156
-88 206 -52 45 -98 59 -197 59 -60 0 -89 -5 -121 -21z m219 -38 c36 -41 51
-98 51 -206 0 -111 -14 -166 -57 -212 -28 -31 -39 -36 -77 -36 -25 0 -56 7
-71 17 -53 35 -84 146 -75 269 12 144 65 213 157 204 34 -4 51 -12 72 -36z"/>
<path d="M3370 1725 c0 -3 11 -10 24 -14 19 -8 44 -58 132 -265 60 -141 114
-256 119 -256 6 0 56 106 113 235 104 236 131 285 158 285 8 0 14 5 14 10 0 6
-36 10 -87 10 l-88 -1 35 -17 c19 -9 36 -25 38 -34 3 -16 -27 -93 -103 -263
l-27 -59 -69 159 c-37 88 -68 166 -69 172 0 7 15 19 33 27 30 13 24 14 -95 15
-71 1 -128 -1 -128 -4z"/>
<path d="M4000 1712 l35 -17 3 -215 c1 -118 0 -225 -3 -237 -3 -15 -17 -26
-38 -32 -23 -7 5 -9 108 -9 77 1 129 3 115 5 -50 9 -50 11 -50 252 0 124 4
231 8 237 4 6 21 16 37 22 24 8 2 11 -110 11 -140 1 -140 1 -105 -17z"/>
<path d="M4773 1713 l37 -15 0 -233 c0 -248 0 -249 -50 -258 -14 -2 38 -5 115
-5 121 -1 135 1 105 11 l-35 12 0 235 0 235 35 17 c35 18 35 18 -105 17 -136
0 -139 0 -102 -16z"/>
<path d="M5223 1709 c-50 -24 -109 -86 -131 -138 -24 -55 -21 -165 7 -226 48
-107 127 -155 257 -155 102 0 171 31 218 97 43 62 54 97 55 178 1 87 -28 156
-88 206 -52 45 -98 59 -197 59 -60 0 -89 -5 -121 -21z m219 -38 c36 -41 51
-98 51 -206 0 -111 -14 -166 -57 -212 -28 -31 -39 -36 -77 -36 -25 0 -56 7
-71 17 -53 35 -84 146 -75 269 12 144 65 213 157 204 34 -4 51 -12 72 -36z"/>
<path d="M5685 1720 c3 -5 12 -10 19 -10 7 0 22 -11 34 -23 22 -23 22 -29 20
-238 l-3 -214 -35 -17 -35 -18 95 1 c76 1 89 3 63 10 -18 5 -37 18 -43 29 -6
12 -9 88 -8 200 l3 181 174 -216 c95 -118 177 -215 182 -215 5 0 9 106 9 243
0 133 4 247 8 254 4 6 21 18 37 25 l30 13 -48 3 c-26 2 -67 2 -90 0 -40 -3
-41 -4 -17 -15 48 -21 51 -32 48 -173 l-3 -132 -128 161 -129 161 -94 0 c-61
0 -93 -4 -89 -10z"/>
<path d="M3080 968 c-30 -15 -53 -37 -67 -63 -30 -53 -30 -75 0 -47 72 67 160
33 160 -62 0 -72 -30 -129 -140 -268 -29 -37 -53 -70 -53 -73 0 -3 68 -4 152
-3 l152 3 12 55 c7 30 13 64 14 74 0 16 -3 15 -25 -8 -22 -24 -30 -26 -112
-26 l-87 0 61 63 c84 86 120 140 134 201 10 47 9 56 -10 95 -16 31 -34 48 -64
62 -54 24 -73 24 -127 -3z"/>
<path d="M3503 971 c-142 -66 -151 -417 -13 -509 28 -19 44 -23 83 -19 94 8
147 92 155 242 7 134 -27 236 -91 278 -41 26 -88 29 -134 8z m100 -38 c13 -32
17 -380 4 -425 -14 -52 -70 -59 -88 -11 -5 13 -9 113 -9 221 0 163 3 201 16
220 22 32 61 29 77 -5z"/>
<path d="M3916 980 c-38 -12 -73 -46 -98 -93 -24 -48 -17 -58 17 -25 36 36 70
43 108 20 42 -24 56 -75 39 -140 -14 -50 -53 -114 -139 -221 l-53 -66 152 -3
c83 -1 152 -1 154 1 6 6 33 142 28 146 -2 2 -13 -8 -25 -22 -19 -26 -25 -27
-107 -27 l-86 0 46 48 c136 140 176 241 128 319 -34 56 -102 82 -164 63z"/>
<path d="M4327 976 c-22 -8 -49 -23 -60 -35 -33 -30 -59 -79 -47 -86 5 -3 10
-1 10 5 0 16 62 50 93 50 35 0 77 -41 77 -75 0 -43 -28 -84 -68 -101 l-37 -15
52 -25 c81 -39 121 -120 89 -182 -27 -53 -73 -52 -145 2 -45 34 -78 34 -93 1
-10 -22 -9 -29 10 -47 16 -17 37 -23 86 -26 76 -5 125 9 172 51 49 42 64 77
64 143 0 55 -2 59 -43 99 l-43 41 23 17 c12 10 27 35 34 56 27 90 -73 164
-174 127z"/>
</g>
</svg>
