<?xml version="1.0" standalone="no"?>
<!DOCTYPE svg PUBLIC "-//W3C//DTD SVG 20010904//EN"
 "http://www.w3.org/TR/2001/REC-SVG-20010904/DTD/svg10.dtd">
<svg version="1.0" xmlns="http://www.w3.org/2000/svg"
 width="500.000000pt" height="500.000000pt" viewBox="0 0 500.000000 500.000000"
 preserveAspectRatio="xMidYMid meet">

<g transform="translate(0.000000,500.000000) scale(0.100000,-0.100000)"
fill="#FFFFFF" stroke="none">
<path d="M613 3345 c-118 -36 -232 -149 -267 -262 -4 -13 -3 -23 2 -23 6 0 12
10 16 23 19 79 110 181 199 225 174 87 395 22 500 -145 69 -109 76 -255 19
-374 -62 -129 -181 -209 -324 -217 -87 -5 -107 -22 -25 -22 60 0 161 28 209
58 51 32 123 112 152 167 99 192 30 415 -165 537 -71 45 -227 61 -316 33z"/>
<path d="M203 3342 l-23 -3 0 -390 0 -389 125 0 125 0 0 30 0 30 -100 0 -100
0 0 335 0 335 100 0 c99 0 100 0 100 24 0 24 -1 25 -102 28 -57 2 -113 2 -125
0z"/>
<path d="M730 3300 c0 -5 11 -10 24 -10 14 0 28 5 31 10 4 6 -7 10 -24 10 -17
0 -31 -4 -31 -10z"/>
<path d="M1278 3304 c-5 -4 -8 -54 -8 -111 l0 -103 30 0 c28 0 30 2 30 40 0
22 4 40 10 40 5 0 19 -18 30 -40 17 -33 26 -40 50 -40 37 0 37 5 1 54 -27 38
-27 40 -9 58 23 23 23 60 -1 82 -20 18 -121 34 -133 20z m90 -68 c-2 -11 -11
-22 -20 -24 -14 -3 -18 3 -18 26 0 25 3 29 21 25 13 -4 19 -12 17 -27z"/>
<path d="M1512 3285 c-37 -31 -49 -78 -32 -130 16 -47 47 -67 102 -63 36 3 44
7 46 26 3 22 1 23 -28 17 -41 -9 -70 16 -70 60 0 48 20 68 63 63 29 -3 37 0
41 16 7 26 5 27 -46 33 -37 4 -49 1 -76 -22z"/>
<path d="M1719 3295 c-57 -31 -65 -139 -14 -182 41 -36 125 -30 125 9 0 18 -5
19 -34 14 -44 -8 -66 13 -66 63 0 46 18 64 61 59 25 -2 33 2 40 19 6 17 3 22
-14 27 -35 9 -70 6 -98 -9z"/>
<path d="M876 3250 c46 -46 54 -51 73 -41 11 7 21 16 21 21 0 13 -78 57 -115
65 -29 7 -28 6 21 -45z"/>
<path d="M260 2960 l0 -310 55 0 c52 0 55 1 55 25 0 22 -4 25 -35 25 l-35 0 0
260 0 260 35 0 c31 0 35 3 35 25 0 24 -3 25 -55 25 l-55 0 0 -310z"/>
<path d="M788 3233 c16 -21 33 -48 36 -61 6 -18 12 -21 29 -16 50 15 50 28 3
72 -29 27 -55 42 -72 42 l-26 0 30 -37z"/>
<path d="M730 3191 l0 -51 35 0 c42 0 44 13 13 60 -36 52 -48 50 -48 -9z"/>
<path d="M972 3190 l-24 -19 26 -65 c14 -35 26 -73 26 -84 0 -43 10 -52 60
-52 l48 0 -12 53 c-15 63 -52 139 -80 166 -21 19 -21 19 -44 1z"/>
<path d="M882 3137 c-30 -17 -32 -23 -26 -51 4 -17 10 -49 13 -71 l6 -40 53
-3 c48 -3 52 -1 52 19 0 33 -30 123 -49 146 -16 20 -16 20 -49 0z"/>
<path d="M730 3040 l0 -70 61 0 62 0 -6 43 c-12 84 -21 97 -72 97 l-45 0 0
-70z"/>
<path d="M650 3031 c0 -18 -219 -131 -254 -131 -74 0 -82 -23 -40 -108 50
-100 186 -171 279 -146 19 5 20 12 17 178 -3 117 0 181 7 195 8 14 8 21 1 21
-5 0 -10 -4 -10 -9z m-11 -166 c-1 -74 -5 -105 -13 -102 -6 2 -14 19 -17 38
-4 19 -7 26 -8 17 -1 -23 -14 -23 -36 2 -17 18 -16 21 13 67 16 26 35 47 41
46 6 -2 11 6 11 17 0 11 2 20 5 20 3 0 5 -47 4 -105z m-39 91 c0 -3 -14 -27
-31 -55 -33 -53 -46 -60 -67 -39 -10 10 -3 21 35 55 44 38 63 50 63 39z m-75
-41 c-37 -31 -75 -46 -75 -27 0 8 90 61 105 61 6 0 -8 -15 -30 -34z m-145 -34
c0 -12 -20 -25 -27 -18 -7 7 6 27 18 27 5 0 9 -4 9 -9z m99 -33 c20 -12 37
-23 39 -24 5 -3 -47 -84 -53 -84 -12 0 -95 84 -95 96 0 16 28 33 54 34 10 0
35 -10 55 -22z m115 -88 c48 -51 56 -82 23 -88 -23 -5 -127 44 -127 59 0 16
40 79 49 79 5 0 29 -23 55 -50z"/>
<path d="M611 2874 c0 -11 3 -14 6 -6 3 7 2 16 -1 19 -3 4 -6 -2 -5 -13z"/>
<path d="M730 2870 l0 -70 29 0 c16 0 36 -3 44 -6 19 -7 37 43 37 102 l0 44
-55 0 -55 0 0 -70z"/>
<path d="M870 2903 c-1 -21 -7 -55 -14 -76 l-14 -38 39 -20 40 -20 24 53 c13
29 27 72 31 96 l7 42 -57 0 -56 0 0 -37z"/>
<path d="M997 2891 c-3 -28 -16 -73 -28 -102 l-23 -52 23 -19 c19 -15 26 -16
39 -6 26 22 60 83 76 138 25 85 24 90 -33 90 l-48 0 -6 -49z"/>
<path d="M1277 2873 c-4 -3 -7 -53 -7 -110 l0 -103 30 0 30 0 0 110 c0 109 0
110 -23 110 -13 0 -27 -3 -30 -7z"/>
<path d="M1380 2771 l0 -111 25 0 c24 0 25 2 25 78 l1 77 40 -77 c38 -75 41
-78 74 -78 l35 0 0 110 c0 103 -1 110 -20 110 -17 0 -19 -8 -22 -77 l-3 -78
-40 75 c-38 71 -42 75 -77 78 l-38 3 0 -110z"/>
<path d="M1654 2866 c-47 -34 -35 -85 27 -116 37 -19 40 -23 27 -37 -12 -12
-23 -13 -52 -5 -34 10 -36 9 -36 -13 0 -54 132 -46 146 9 9 39 -4 65 -47 87
-48 24 -47 45 3 41 26 -2 37 1 42 14 9 23 4 26 -46 31 -29 3 -50 -1 -64 -11z"/>
<path d="M1797 2874 c-4 -4 -7 -16 -7 -26 0 -13 8 -18 30 -18 l30 0 0 -85 c0
-84 0 -85 25 -85 25 0 25 1 25 85 l0 85 31 0 c26 0 30 3 27 23 -3 20 -9 22
-78 25 -42 1 -79 0 -83 -4z"/>
<path d="M1990 2771 l0 -111 30 0 31 0 -3 108 -3 107 -27 3 -28 3 0 -110z"/>
<path d="M2080 2855 c0 -20 5 -25 25 -25 25 0 25 -1 25 -85 l0 -85 30 0 30 0
0 85 c0 84 0 85 25 85 20 0 25 5 25 25 0 25 -1 25 -80 25 -79 0 -80 0 -80 -25z"/>
<path d="M2277 2873 c-10 -10 -8 -113 3 -154 15 -53 75 -74 135 -47 32 15 47
64 43 143 -3 57 -4 60 -30 63 l-28 3 0 -80 c0 -65 -3 -82 -17 -90 -11 -6 -24
-6 -35 0 -15 8 -18 23 -18 89 0 77 -1 80 -23 80 -13 0 -27 -3 -30 -7z"/>
<path d="M2490 2855 c0 -21 5 -25 30 -25 l30 0 0 -85 c0 -84 0 -85 25 -85 25
0 25 1 25 85 0 84 0 85 25 85 20 0 25 5 25 25 0 25 -1 25 -80 25 -79 0 -80 0
-80 -25z"/>
<path d="M2690 2770 l0 -110 60 0 c57 0 60 1 60 25 0 22 -4 25 -35 25 -28 0
-35 4 -35 20 0 16 7 20 35 20 28 0 35 4 35 19 0 15 -8 21 -32 23 -22 2 -34 9
-36 21 -3 14 4 17 32 17 32 0 36 3 36 25 0 24 -3 25 -60 25 l-60 0 0 -110z"/>
<path d="M2984 2871 c-36 -16 -54 -51 -54 -106 1 -73 33 -105 105 -105 57 0
95 44 95 109 0 65 -28 100 -85 106 -22 3 -50 1 -61 -4z m84 -98 c3 -44 0 -53
-17 -63 -45 -24 -84 35 -61 94 8 23 15 27 42 24 32 -3 33 -4 36 -55z"/>
<path d="M3180 2770 l0 -110 25 0 c23 0 25 4 25 40 0 39 1 40 35 40 31 0 35 3
35 25 0 22 -4 25 -35 25 -28 0 -35 4 -35 20 0 16 7 20 35 20 31 0 35 3 35 25
0 24 -3 25 -60 25 l-60 0 0 -110z"/>
<path d="M730 2713 l0 -56 26 24 c30 28 56 74 47 83 -4 3 -21 6 -40 6 l-33 0
0 -57z"/>
<path d="M825 2730 c-4 -11 -18 -34 -32 -51 -21 -25 -24 -33 -13 -39 18 -11
64 15 97 54 24 28 24 31 7 43 -26 19 -52 16 -59 -7z"/>
<path d="M875 2657 l-50 -50 35 6 c38 8 110 52 110 67 0 8 -34 32 -42 29 -2
-1 -25 -24 -53 -52z"/>
<path d="M740 2600 c0 -5 14 -10 31 -10 17 0 28 4 24 10 -3 6 -17 10 -31 10
-13 0 -24 -4 -24 -10z"/>
<path d="M190 2450 l0 -80 209 0 209 0 153 -237 c84 -131 161 -253 172 -270
l19 -33 89 0 c49 0 89 3 89 6 0 6 -232 373 -387 612 l-53 82 -250 0 -250 0 0
-80z m550 -47 c69 -109 111 -175 252 -393 95 -147 96 -150 70 -151 -93 -5 -75
-22 -222 209 -74 116 -152 239 -173 272 l-37 60 -205 0 -205 0 0 50 0 50 229
0 229 0 62 -97z"/>
<path d="M240 2463 c1 -30 21 -34 211 -40 l195 -6 29 -46 c17 -25 95 -146 174
-268 122 -189 147 -223 168 -223 30 0 34 -9 -106 209 -59 91 -138 214 -176
274 l-68 107 -214 0 c-117 0 -213 -3 -213 -7z"/>
<path d="M1277 2453 c-4 -3 -7 -53 -7 -110 l0 -103 30 0 30 0 0 110 c0 109 0
110 -23 110 -13 0 -27 -3 -30 -7z"/>
<path d="M1380 2351 l0 -111 25 0 c24 0 25 2 25 78 l1 77 40 -77 c38 -75 41
-78 74 -78 l35 0 0 110 c0 103 -1 110 -20 110 -17 0 -19 -8 -22 -77 l-3 -78
-40 75 c-38 71 -42 75 -77 78 l-38 3 0 -110z"/>
<path d="M1637 2453 c-4 -3 -7 -53 -7 -110 l0 -103 30 0 c28 0 30 2 30 40 0
38 2 40 30 40 25 0 30 4 30 25 0 21 -5 25 -30 25 -23 0 -30 4 -30 20 0 16 7
20 35 20 31 0 35 3 35 25 0 24 -3 25 -58 25 -32 0 -62 -3 -65 -7z"/>
<path d="M1840 2447 c-36 -18 -51 -55 -47 -111 5 -62 39 -96 95 -96 55 0 85
20 101 67 36 103 -54 188 -149 140z m90 -57 c16 -31 8 -81 -15 -96 -18 -12
-24 -11 -43 2 -25 17 -31 81 -10 102 19 19 56 14 68 -8z"/>
<path d="M2040 2350 l0 -110 30 0 c28 0 30 2 30 40 0 22 3 40 8 40 4 0 17 -18
30 -40 19 -33 28 -40 53 -40 l31 0 -17 28 c-10 15 -24 35 -31 46 -11 16 -9 23
9 48 20 27 20 31 7 56 -17 29 -44 40 -107 41 l-43 1 0 -110z m100 40 c0 -15
-18 -30 -36 -30 -2 0 -4 13 -4 29 0 24 3 28 20 24 11 -3 20 -13 20 -23z"/>
<path d="M2250 2351 l0 -111 26 0 26 0 -4 75 c-2 41 -2 75 -1 75 1 0 12 -34
24 -75 20 -69 24 -75 49 -75 24 0 28 6 46 73 l19 72 3 -72 c3 -70 4 -73 27
-73 l25 0 0 111 0 110 -37 -3 c-37 -3 -37 -3 -56 -75 -11 -40 -23 -73 -26 -73
-4 0 -16 33 -27 73 -20 71 -21 72 -57 75 l-37 3 0 -110z"/>
<path d="M2559 2363 c-17 -54 -34 -104 -37 -110 -3 -9 6 -13 26 -13 22 0 32 6
37 20 5 15 15 20 45 20 29 0 39 -4 43 -20 4 -14 14 -20 35 -20 l30 0 -36 110
-36 110 -37 0 -37 0 -33 -97z m86 0 c6 -30 4 -33 -18 -33 -23 0 -24 1 -14 40
12 44 21 42 32 -7z"/>
<path d="M2750 2435 c0 -20 5 -25 25 -25 25 0 25 -1 25 -85 l0 -85 30 0 30 0
0 85 c0 84 0 85 25 85 20 0 25 5 25 25 0 25 -1 25 -80 25 -79 0 -80 0 -80 -25z"/>
<path d="M2947 2453 c-4 -3 -7 -53 -7 -110 l0 -103 30 0 30 0 0 110 c0 109 0
110 -23 110 -13 0 -27 -3 -30 -7z"/>
<path d="M3088 2445 c-40 -22 -56 -84 -37 -138 24 -69 110 -91 166 -43 25 22
28 31 28 85 0 48 -4 65 -21 82 -28 28 -99 35 -136 14z m90 -47 c28 -28 6 -118
-29 -118 -18 0 -49 41 -49 66 0 54 45 85 78 52z"/>
<path d="M3297 2453 c-4 -3 -7 -53 -7 -110 l0 -103 25 0 c24 0 25 2 25 78 l0
77 42 -77 c41 -76 43 -78 80 -78 l39 0 -3 108 c-3 102 -4 107 -25 110 -21 3
-22 -1 -25 -75 l-3 -78 -40 77 c-37 72 -42 78 -71 78 -17 0 -34 -3 -37 -7z"/>
<path d="M190 2265 l0 -75 74 0 c41 0 81 -3 90 -6 14 -5 16 5 16 75 l0 81 -90
0 -90 0 0 -75z"/>
<path d="M412 2263 l3 -78 95 0 95 0 3 78 3 77 -101 0 -101 0 3 -77z m176 0
l-3 -58 -77 -3 -78 -3 0 61 0 60 80 0 81 0 -3 -57z"/>
<path d="M190 1995 l0 -165 90 0 90 0 0 165 0 165 -90 0 -90 0 0 -165z"/>
<path d="M410 1995 l0 -165 100 0 100 0 -2 163 -3 162 -97 3 -98 3 0 -166z
m175 134 c0 -11 -19 -15 -82 -17 -68 -2 -83 0 -83 12 0 12 16 16 73 18 90 5
92 4 92 -13z m-110 -189 c0 -91 -1 -95 -22 -98 -23 -3 -23 -1 -23 98 0 99 0
101 23 98 21 -3 22 -7 22 -98z m110 0 c0 -91 -1 -95 -22 -98 -23 -3 -23 -1
-23 98 0 99 0 101 23 98 21 -3 22 -7 22 -98z"/>
<path d="M1260 2005 c0 -20 5 -25 25 -25 25 0 25 -1 25 -85 l0 -85 30 0 30 0
0 85 c0 84 0 85 25 85 20 0 25 5 25 25 0 25 -1 25 -80 25 -79 0 -80 0 -80 -25z"/>
<path d="M1457 2023 c-4 -3 -7 -53 -7 -110 l0 -103 65 0 c63 0 65 1 65 25 0
22 -4 25 -35 25 -28 0 -35 4 -35 20 0 16 7 20 30 20 23 0 30 4 30 20 0 16 -7
20 -30 20 -23 0 -30 4 -30 20 0 16 7 20 35 20 31 0 35 3 35 25 0 24 -3 25 -58
25 -32 0 -62 -3 -65 -7z"/>
<path d="M1652 2005 c-37 -31 -49 -78 -32 -130 16 -47 47 -67 102 -63 36 3 44
7 46 26 3 22 1 23 -28 17 -41 -9 -70 16 -70 60 0 48 20 68 63 63 29 -3 37 0
41 16 7 26 5 27 -46 33 -37 4 -49 1 -76 -22z"/>
<path d="M1820 1920 l0 -110 25 0 c23 0 25 4 25 45 l0 45 40 0 40 0 0 -45 c0
-41 2 -45 25 -45 l25 0 0 110 0 110 -25 0 c-22 0 -25 -4 -25 -40 l0 -40 -40 0
-40 0 0 40 c0 36 -2 40 -25 40 l-25 0 0 -110z"/>
<path d="M2057 2023 c-4 -3 -7 -53 -7 -110 l0 -103 25 0 c24 0 25 2 25 78 l0
77 42 -77 c41 -76 43 -78 80 -78 l39 0 -3 108 c-3 102 -4 107 -25 110 -21 3
-22 -1 -25 -75 l-3 -78 -40 77 c-37 72 -42 78 -71 78 -17 0 -34 -3 -37 -7z"/>
<path d="M2354 2020 c-35 -14 -54 -50 -54 -103 0 -63 39 -107 95 -107 46 0 92
23 101 52 10 33 6 105 -8 127 -23 37 -85 51 -134 31z m90 -71 c19 -56 -21
-112 -64 -89 -15 8 -20 21 -20 50 0 59 8 72 44 68 23 -2 33 -10 40 -29z"/>
<path d="M2550 1921 l0 -111 70 0 c68 0 70 1 70 25 0 22 -4 25 -40 25 l-39 0
-3 83 c-3 81 -3 82 -30 85 l-28 3 0 -110z"/>
<path d="M2770 2017 c-36 -18 -51 -55 -47 -111 5 -62 39 -96 95 -96 55 0 85
20 101 67 36 103 -54 188 -149 140z m90 -57 c16 -31 8 -81 -15 -96 -18 -12
-24 -11 -43 2 -25 17 -31 81 -10 102 19 19 56 14 68 -8z"/>
<path d="M3025 2021 c-55 -24 -78 -92 -51 -154 16 -40 46 -57 99 -57 70 0 77
7 77 71 l0 59 -45 0 c-41 0 -45 -2 -45 -25 0 -18 5 -25 20 -25 23 0 27 -28 5
-36 -27 -11 -65 23 -65 57 0 52 15 69 64 69 31 0 46 5 50 16 4 9 4 19 2 22
-10 9 -91 12 -111 3z"/>
<path d="M3180 2020 c0 -6 14 -34 30 -63 21 -38 30 -67 30 -100 0 -46 1 -47
30 -47 29 0 30 2 30 45 0 32 10 62 36 110 l36 65 -31 0 c-26 0 -33 -6 -49 -42
l-19 -43 -22 43 c-16 32 -27 42 -46 42 -14 0 -25 -5 -25 -10z"/>
<path d="M388 1733 c7 -3 16 -2 19 1 4 3 -2 6 -13 5 -11 0 -14 -3 -6 -6z"/>
<path d="M648 1733 c7 -3 16 -2 19 1 4 3 -2 6 -13 5 -11 0 -14 -3 -6 -6z"/>
<path d="M774 1726 c-3 -9 -14 -16 -23 -17 -13 0 -13 -2 -1 -6 8 -3 18 -11 22
-17 4 -6 8 1 8 17 0 20 5 27 19 27 11 0 22 -8 25 -17 4 -14 4 -14 3 2 -3 25
-44 33 -53 11z"/>
<path d="M980 1731 c0 -5 5 -13 10 -16 6 -3 10 -2 10 4 0 5 -4 13 -10 16 -5 3
-10 2 -10 -4z"/>
<path d="M221 1723 c-1 -7 -8 -10 -17 -6 -14 5 -13 2 2 -16 16 -18 20 -19 22
-6 2 8 1 21 -1 28 -4 9 -6 9 -6 0z"/>
<path d="M300 1712 c0 -15 4 -21 11 -16 6 3 15 0 20 -7 6 -10 9 -5 9 16 0 23
-3 27 -10 15 -9 -13 -11 -13 -20 0 -8 12 -10 11 -10 -8z"/>
<path d="M440 1716 c0 -8 -5 -16 -12 -18 -7 -3 -6 -7 5 -11 13 -5 17 -1 17 18
0 14 -2 25 -5 25 -3 0 -5 -6 -5 -14z"/>
<path d="M492 1705 c0 -16 2 -22 5 -12 2 9 2 23 0 30 -3 6 -5 -1 -5 -18z"/>
<path d="M592 1705 c0 -16 2 -22 5 -12 2 9 2 23 0 30 -3 6 -5 -1 -5 -18z"/>
<path d="M685 1715 c-19 -14 -19 -15 -1 -8 15 5 17 3 11 -8 -6 -11 -5 -11 5
-2 21 19 8 36 -15 18z"/>
<path d="M842 1705 c0 -16 2 -22 5 -12 2 9 2 23 0 30 -3 6 -5 -1 -5 -18z"/>
<path d="M1047 1710 c-3 -11 -1 -23 4 -26 5 -3 9 6 9 20 0 31 -6 34 -13 6z"/>
<path d="M240 1706 c0 -2 9 -6 20 -9 11 -3 20 -1 20 4 0 5 -9 9 -20 9 -11 0
-20 -2 -20 -4z"/>
<path d="M1078 1703 c6 -2 18 -2 25 0 6 3 1 5 -13 5 -14 0 -19 -2 -12 -5z"/>
</g>
</svg>
